<?xml version="1.0" encoding="UTF-8" standalone="no"?>
<svg width="96px" height="132px" viewBox="0 0 96 132" version="1.1" xmlns="http://www.w3.org/2000/svg" xmlns:xlink="http://www.w3.org/1999/xlink">
    <!-- Generator: Sketch 3.7 (28169) - http://www.bohemiancoding.com/sketch -->
    <title>food-1</title>
    <desc>Created with Sketch.</desc>
    <defs></defs>
    <g id="Page-1" stroke="none" stroke-width="1" fill="none" fill-rule="evenodd">
        <g id="Icons" transform="translate(-146.000000, -362.000000)" fill="#000000">
            <g id="aesthetic" transform="translate(14.000000, 89.000000)">
                <g id="food-1" transform="translate(132.431290, 273.004152)">
                    <g id="Group">
                        <path d="M53.736973,99.1736799 C57.5785661,99.1736799 60.8770364,97.9066299 63.2753389,95.5102648 C66.4045206,92.3731542 67.5898209,87.7710695 66.6264146,82.5351798 C65.7144945,77.5795192 62.9555093,72.5922244 58.8570451,68.4920886 C53.7906977,63.4233286 47.2648302,60.3970779 41.4004477,60.3970779 C37.5557766,60.3970779 34.2556274,61.6655277 31.8564855,64.065812 C28.7351387,67.1889252 27.54732,71.7949292 28.5112859,77.0358579 C29.4232061,81.9915185 32.1824711,86.9788133 36.2806554,91.0789491 C41.3470029,96.1477091 47.8728703,99.1736799 53.736973,99.1736799 L53.736973,99.1736799 Z M33.550771,68.7300454 L39.0189342,74.2008125 C39.4288646,74.610938 39.9658314,74.8158609 40.503078,74.8158609 C41.0400448,74.8158609 41.5772914,74.610938 41.9872217,74.2008125 C42.8068026,73.3808413 42.8068026,72.0513626 41.9872217,71.2316714 L36.5176595,65.7595046 C37.888198,64.9941235 39.54219,64.5965957 41.4007275,64.5965957 C46.1763462,64.5965957 51.5927434,67.1628899 55.8890374,71.4615097 C59.3920532,74.9659136 61.7391494,79.1687908 62.4985698,83.2955218 C63.038055,86.2271497 62.7112299,88.8303972 61.5872093,90.8409923 L47.9229573,77.1702335 C47.1033764,76.3502624 45.7748103,76.3499824 44.9549496,77.1702335 C44.1353687,77.9902047 44.1353687,79.3196834 44.9549496,80.1393746 L58.6206007,93.8115331 C57.2500622,94.5769142 55.5957903,94.9744421 53.7372528,94.9744421 C48.9616341,94.9744421 43.5452369,92.4081478 39.2489429,88.109528 C35.7459271,84.6051241 33.398831,80.4025269 32.6396903,76.2755159 C32.0999254,73.344168 32.4264706,70.7406405 33.550771,68.7300454 L33.550771,68.7300454 Z" id="Shape"></path>
                        <path d="M93.0388011,16.7969513 L86.2826452,16.7969513 L82.4830245,1.59039134 C82.2493782,0.655641001 81.4099304,0 80.4470837,0 L14.690337,0 C13.7274904,0 12.8880425,0.655641001 12.6543962,1.59039134 L8.85477553,16.7969513 L2.09861957,16.7969513 C0.939342122,16.7969513 0,17.7370207 0,18.8965703 L0,30.0945378 C0,31.2540874 0.939342122,32.1941567 2.09861957,32.1941567 L4.36708743,32.1941567 L8.04834598,75.7780462 C8.14096505,76.8734874 9.0579219,77.7010172 10.137172,77.7010172 C10.196493,77.7010172 10.2563736,77.6984977 10.316534,77.6934586 C11.4713344,77.5957563 12.3284106,76.5801006 12.2310347,75.4247503 L10.1164656,50.390854 L85.0212349,50.390854 L80.0553414,109.180184 L15.0820793,109.180184 L12.9378498,83.7929915 C12.8399142,82.6373612 11.8230631,81.7767974 10.6699415,81.8775791 C9.51514115,81.9752814 8.65806492,82.9909371 8.75544087,84.1462874 L12.5989927,129.652868 C12.6907723,130.740191 13.5996145,131.575839 14.690337,131.575839 L80.4470837,131.575839 C81.5375264,131.575839 82.4466484,130.740191 82.5384281,129.652868 L90.7703333,32.1941567 L93.0388011,32.1941567 C94.1980786,32.1941567 95.1374207,31.2540874 95.1374207,30.0945378 L95.1374207,18.8965703 C95.1374207,17.7370207 94.1980786,16.7969513 93.0388011,16.7969513 L93.0388011,16.7969513 Z M16.6191083,127.376881 L15.436886,113.379422 L79.7008146,113.379422 L78.5185922,127.376881 L16.6191083,127.376881 L16.6191083,127.376881 Z M85.3757617,46.1916162 L9.761659,46.1916162 L8.57943664,32.1941567 L86.5579841,32.1941567 L85.3757617,46.1916162 L85.3757617,46.1916162 Z M90.9401816,27.9949189 L88.8049061,27.9949189 L4.19723915,27.9949189 L4.19723915,20.9961892 L10.4494466,20.9961892 C10.4791071,20.9967491 10.5098868,20.9967491 10.540107,20.9961892 L76.2498445,20.9961892 C77.409122,20.9961892 78.3484641,20.0561198 78.3484641,18.8965703 C78.3484641,17.7370207 77.409122,16.7969513 76.2498445,16.7969513 L13.18073,16.7969513 L16.3286594,4.19923783 L78.8084815,4.19923783 L82.6081022,19.4057978 C82.8420284,20.3405482 83.6814762,20.9961892 84.6443228,20.9961892 L90.9401816,20.9961892 L90.9401816,27.9949189 L90.9401816,27.9949189 Z" id="Shape"></path>
                    </g>
                </g>
            </g>
        </g>
    </g>
</svg>