<?xml version="1.0" encoding="UTF-8" standalone="no"?>
<svg width="96px" height="96px" viewBox="0 0 96 96" version="1.1" xmlns="http://www.w3.org/2000/svg" xmlns:xlink="http://www.w3.org/1999/xlink">
    <!-- Generator: Sketch 3.7 (28169) - http://www.bohemiancoding.com/sketch -->
    <title>game</title>
    <desc>Created with Sketch.</desc>
    <defs></defs>
    <g id="Page-1" stroke="none" stroke-width="1" fill="none" fill-rule="evenodd">
        <g id="Icons" transform="translate(-278.000000, -455.000000)" fill="#000000">
            <g id="aesthetic" transform="translate(14.000000, 89.000000)">
                <g id="game" transform="translate(264.862579, 366.751239)">
                    <g id="Capa_1">
                        <path d="M95.1254153,53.250655 C95.0504379,52.3369008 94.4322712,51.5582155 93.5597252,51.2781063 L81.7601933,47.4914203 L77.9753096,35.6864962 C77.7519632,34.9898493 77.2062821,34.444135 76.5101933,34.2206822 L64.7111145,30.4342228 L60.9269103,18.6299786 C60.7035639,17.9333318 60.1578828,17.3873908 59.4615675,17.1641647 L47.6633947,13.3781585 L43.8791906,1.57414096 C43.5992147,0.701179402 42.8209,0.0827183199 41.9075808,0.00770526815 C40.993582,-0.0682142857 40.1255663,0.415857855 39.7069616,1.23148315 L12.1284355,54.9850202 L5.80360918,61.3128583 C-1.92857143,69.0487209 -1.92857143,81.6359563 5.80360918,89.3715923 C9.54930535,93.1190721 14.5295228,95.1827243 19.826412,95.1827243 C25.1237542,95.1827243 30.1035186,93.1190721 33.8492147,89.3715923 L40.1740411,83.0439808 L93.9017668,55.452322 C94.717457,55.033518 95.2003926,54.1646357 95.1254153,53.250655 L95.1254153,53.250655 Z M41.237315,8.17415638 L43.3881003,14.8829521 L27.576714,40.7014926 C26.922984,41.7686723 27.2580036,43.1640057 28.3246753,43.8178204 C28.6941256,44.0442193 29.1023105,44.152093 29.505965,44.152093 C30.2679704,44.152093 31.0123075,43.7672829 31.4395198,43.0695028 L46.8644669,17.8818878 L56.9689671,21.1242193 L60.3311688,31.6117691 L52.3629568,39.5844554 C51.4784053,40.4694281 51.4784053,41.904421 52.3631833,42.7893937 C52.8053458,43.2319934 53.3850045,43.4531799 53.9646632,43.4531799 C54.544322,43.4531799 55.1242072,43.2317667 55.5663697,42.7893937 L63.5343552,34.8167074 L74.0171398,38.1807368 L77.2586077,48.2909551 L35.0221232,74.1822425 L29.6058593,68.7631728 L49.1595439,49.1990437 C50.0440954,48.314071 50.0440954,46.8790781 49.1595439,45.9941054 C48.2747659,45.1091327 46.8404561,45.1091327 45.9559046,45.9941054 L26.4024464,65.5580078 L20.9859559,60.1389381 L26.7277258,50.7629865 C27.3814558,49.6958068 27.0464361,48.3004734 25.9797644,47.6466588 C24.9124132,46.9926175 23.5184234,47.3277966 22.86492,48.3952029 L17.6914829,56.8431229 L16.750302,55.9014938 L41.237315,8.17415638 L41.237315,8.17415638 Z M30.6458019,86.166654 C27.7558895,89.0579426 23.9134703,90.6502136 19.826412,90.6502136 C15.7395802,90.6502136 11.8969345,89.0579426 9.00702205,86.1664274 C3.04122622,80.1980173 3.04122622,70.4862067 9.00702205,64.51757 L13.9811235,59.5410999 L35.6199034,81.1899573 L30.6458019,86.166654 L30.6458019,86.166654 Z M39.2580036,78.4199134 L38.3170492,77.4785109 L80.2567955,51.7689772 L86.9630776,53.9212399 L39.2580036,78.4199134 L39.2580036,78.4199134 Z" id="Shape"></path>
                    </g>
                </g>
            </g>
        </g>
    </g>
</svg>