<?xml version="1.0" encoding="UTF-8" standalone="no"?>
<svg width="115px" height="141px" viewBox="0 0 115 141" version="1.1" xmlns="http://www.w3.org/2000/svg" xmlns:xlink="http://www.w3.org/1999/xlink">
    <!-- Generator: Sketch 3.7 (28169) - http://www.bohemiancoding.com/sketch -->
    <title>graduation</title>
    <desc>Created with Sketch.</desc>
    <defs></defs>
    <g id="Page-1" stroke="none" stroke-width="1" fill="none" fill-rule="evenodd">
        <g id="Icons" transform="translate(-797.000000, -511.000000)" fill="#000000">
            <g id="post-type" transform="translate(497.000000, 350.000000)">
                <g id="graduation" transform="translate(300.359116, 161.268722)">
                    <g id="Capa_1">
                        <g id="Group">
                            <path d="M114.193056,124.471557 C108.757775,111.59931 90.3891609,71.1737215 90.3891609,71.1737215 C96.7875792,63.6318713 100.65738,53.8862287 100.65738,43.2507183 C100.65738,19.4024133 81.2382112,0 57.3683688,0 C33.4989098,0 14.0785907,19.4024133 14.0785907,43.2507183 C14.0785907,53.8862287 17.9495418,63.6318713 24.3468098,71.1737215 L0.497288383,124.833174 C-0.0379580184,126.037924 0.220079824,127.448765 1.14870933,128.385367 C2.07733883,129.32082 3.4814021,129.596246 4.69835917,129.075273 L20.5533084,122.24593 L26.1151167,138.577284 C26.5403232,139.826087 27.6886491,140.686459 29.0064441,140.745451 C29.0551378,140.746983 29.1038314,140.748516 29.1509913,140.748516 C30.4143415,140.748516 31.5653514,140.006129 32.0821939,138.845049 L55.3692465,86.4493392 C56.0325533,86.4807508 56.6985439,86.5010534 57.3687522,86.5010534 C58.0389604,86.5010534 58.7038009,86.4807508 59.3682579,86.4493392 L82.6553105,138.845049 C83.172153,140.00498 84.322396,140.748516 85.5865131,140.748516 C85.633673,140.748516 85.6815998,140.746983 85.7302934,140.745451 C87.0488553,140.686459 88.1964144,139.826087 88.6223877,138.577284 L94.1841959,122.24593 L109.928722,128.966865 C110.338975,129.142693 110.76955,129.228883 111.19744,129.228883 L111.230414,129.228883 C113.002938,129.228883 114.44841,127.944455 114.57647,126.1448 C114.60561,125.729171 114.512824,125.227734 114.193056,124.471557 L114.193056,124.471557 Z M29.5470583,128.761157 L25.5070216,116.898678 C25.2194608,116.05248 24.5895111,115.365639 23.7728386,115.002873 C23.3595179,114.820149 22.9147573,114.727447 22.4711469,114.727447 C22.039039,114.727447 21.606931,114.81517 21.2012787,114.988699 L9.68542933,119.949818 L29.1977679,76.0494158 C34.6890279,80.7630722 41.3623543,84.1336909 48.7166245,85.6330205 L29.5470583,128.761157 L29.5470583,128.761157 Z M20.4915787,43.2507183 C20.4915787,22.9346868 37.0339899,6.40720169 57.3683688,6.40720169 C77.7019808,6.40720169 94.2440086,22.9346868 94.2440086,43.2507183 C94.2440086,63.5659835 77.7015974,80.0934687 57.3683688,80.0934687 C37.0339899,80.0934687 20.4915787,63.5663666 20.4915787,43.2507183 L20.4915787,43.2507183 Z M93.5350755,114.988699 C92.7141854,114.638575 91.7813383,114.643555 90.9642824,115.002873 C90.1464597,115.365639 89.5176602,116.05248 89.2293326,116.898678 L85.1900626,128.761157 L66.0208799,85.6330205 C73.3747667,84.134457 80.0484765,80.7630722 85.5389697,76.0494158 L105.051308,119.949818 L93.5350755,114.988699 L93.5350755,114.988699 Z" id="Shape"></path>
                            <path d="M57.3683688,14.4167784 C41.4559074,14.4167784 28.5083889,27.3529975 28.5083889,43.2507183 C28.5083889,59.148439 41.4562908,72.084275 57.3683688,72.084275 C73.2804468,72.084275 86.2275818,59.1488221 86.2275818,43.2507183 C86.2275818,27.3526144 73.2808302,14.4167784 57.3683688,14.4167784 L57.3683688,14.4167784 Z M57.3683688,65.6766903 C44.9913709,65.6766903 34.921377,55.6165486 34.921377,43.2507183 C34.921377,30.884888 44.9913709,20.8247462 57.3683688,20.8247462 C69.7453667,20.8247462 79.8142104,30.884888 79.8142104,43.2507183 C79.8145938,55.6165486 69.7453667,65.6766903 57.3683688,65.6766903 L57.3683688,65.6766903 Z" id="Shape"></path>
                        </g>
                    </g>
                </g>
            </g>
        </g>
    </g>
</svg>