<?xml version="1.0" encoding="UTF-8" standalone="no"?>
<svg width="96px" height="96px" viewBox="0 0 96 96" version="1.1" xmlns="http://www.w3.org/2000/svg" xmlns:xlink="http://www.w3.org/1999/xlink">
    <!-- Generator: Sketch 3.7 (28169) - http://www.bohemiancoding.com/sketch -->
    <title>speakers</title>
    <desc>Created with Sketch.</desc>
    <defs></defs>
    <g id="Page-1" stroke="none" stroke-width="1" fill="none" fill-rule="evenodd">
        <g id="Icons" transform="translate(-14.000000, -161.000000)" fill="#000000">
            <g id="aesthetic" transform="translate(14.000000, 89.000000)">
                <g id="speakers" transform="translate(0.000000, 72.187306)">
                    <g id="Group">
                        <path d="M78.2375737,0 L16.8998471,0 C16.0614232,0 15.3816967,0.680050187 15.3816967,1.51887326 L15.3816967,93.663851 C15.3816967,94.5026741 16.0614232,95.1827243 16.8998471,95.1827243 L78.2375737,95.1827243 C79.0759975,95.1827243 79.755724,94.5026741 79.755724,93.663851 L79.755724,1.51887326 C79.755724,0.680050187 79.0759975,0 78.2375737,0 L78.2375737,0 Z M76.7194233,92.1449777 L18.4179974,92.1449777 L18.4179974,3.03774652 L76.7194233,3.03774652 L76.7194233,92.1449777 L76.7194233,92.1449777 Z" id="Shape"></path>
                        <path d="M86.5108857,55.3890549 C86.0289236,54.7025242 85.0818002,54.5370683 84.3960011,55.0194624 C83.7099996,55.5016541 83.54442,56.4490259 84.0265845,57.1353541 C85.2326031,58.8526935 85.8700238,60.87401 85.8700238,62.9803835 C85.8700238,65.0867569 85.2326031,67.1080734 84.0265845,68.8254128 C83.5446224,69.511741 83.7099996,70.4591129 84.3960011,70.9413045 C84.6615762,71.1278222 84.9658135,71.2175369 85.2674194,71.2175369 C85.7451307,71.2175369 86.2155549,70.9925412 86.5108857,70.571712 C88.0780217,68.3401834 88.9063245,65.7151654 88.9063245,62.9803835 C88.9063245,60.2456015 88.0780217,57.6205835 86.5108857,55.3890549 L86.5108857,55.3890549 Z" id="Shape"></path>
                        <path d="M91.6092394,51.8051216 C91.1272772,51.1187934 90.1803563,50.9533375 89.4941523,51.4355291 C88.8081508,51.9177207 88.6427736,52.8652951 89.1247357,53.5516233 C91.0720166,56.3238708 92.1011201,59.5843854 92.1011201,62.9803835 C92.1011201,66.376179 91.0720166,69.6364911 89.1249381,72.4091436 C88.642976,73.0954718 88.8083532,74.0428437 89.4943547,74.5250353 C89.7599298,74.711553 90.0641672,74.8012678 90.365773,74.8012678 C90.8434843,74.8012678 91.3137061,74.576272 91.6092394,74.1554429 C93.9174351,70.8688036 95.1374207,67.0045875 95.1374207,62.9803835 C95.1374207,58.9559769 93.9174351,55.0917608 91.6092394,51.8051216 L91.6092394,51.8051216 Z" id="Shape"></path>
                        <path d="M10.7414196,55.0194624 C10.0552157,54.5372708 9.10829472,54.7027267 8.62653502,55.3890549 C7.05939904,57.6205835 6.23109622,60.2456015 6.23109622,62.9803835 C6.23109622,65.7151654 7.05939904,68.3401834 8.62653502,70.571712 C8.92206828,70.9925412 9.39229005,71.2175369 9.87000135,71.2175369 C10.1716072,71.2175369 10.476047,71.1280247 10.7414196,70.9413045 C11.4274212,70.4591129 11.5930008,69.511741 11.1108362,68.8254128 C9.9048176,67.1080734 9.26739688,65.0867569 9.26739688,62.9803835 C9.26739688,60.87401 9.9048176,58.852896 11.1108362,57.1353541 C11.5930008,56.4490259 11.4276236,55.5016541 10.7414196,55.0194624 L10.7414196,55.0194624 Z" id="Shape"></path>
                        <path d="M3.03630066,62.9803835 C3.03630066,59.5843854 4.06540417,56.3238708 6.01268499,53.5514208 C6.49464711,52.8650926 6.32926994,51.9177207 5.64326841,51.4353266 C4.95726688,50.9531349 4.01034591,51.1185909 3.52818137,51.8049191 C1.21998561,55.0917608 0,58.9561794 0,62.9803835 C0,67.004385 1.21998561,70.8688036 3.52818137,74.1554429 C3.82371463,74.576272 4.2939364,74.8012678 4.7716477,74.8012678 C5.07325356,74.8012678 5.37769331,74.7117555 5.64306599,74.5250353 C6.32906752,74.0428437 6.49464711,73.0954718 6.01248257,72.4091436 C4.06540417,69.6364911 3.03630066,66.376179 3.03630066,62.9803835 L3.03630066,62.9803835 Z" id="Shape"></path>
                        <path d="M47.5687104,84.7203202 C59.5503576,84.7203202 69.2982997,74.9677363 69.2982997,62.9803835 C69.2982997,50.9930307 59.5503576,41.2404467 47.5687104,41.2404467 C35.5870631,41.2404467 25.839121,50.9930307 25.839121,62.9803835 C25.839121,74.9677363 35.5870631,84.7203202 47.5687104,84.7203202 L47.5687104,84.7203202 Z M47.5687104,44.2781933 C57.8761414,44.2781933 66.261999,52.6680441 66.261999,62.9803835 C66.261999,73.2927228 57.8761414,81.6825737 47.5687104,81.6825737 C37.2612793,81.6825737 28.8754217,73.2927228 28.8754217,62.9803835 C28.8754217,52.6680441 37.2612793,44.2781933 47.5687104,44.2781933 L47.5687104,44.2781933 Z" id="Shape"></path>
                        <path d="M52.1231614,62.9803835 C52.1231614,60.510493 50.0374252,58.4237637 47.5687104,58.4237637 C45.0999955,58.4237637 43.0142594,60.510493 43.0142594,62.9803835 C43.0142594,65.4502739 45.0999955,67.5370033 47.5687104,67.5370033 C50.0374252,67.5370033 52.1231614,65.4504764 52.1231614,62.9803835 L52.1231614,62.9803835 Z M47.5687104,64.4992567 C46.7600423,64.4992567 46.05056,63.7894366 46.05056,62.9803835 C46.05056,62.1713303 46.7600423,61.4615102 47.5687104,61.4615102 C48.3773784,61.4615102 49.0868607,62.1713303 49.0868607,62.9803835 C49.0868607,63.7894366 48.3773784,64.4992567 47.5687104,64.4992567 L47.5687104,64.4992567 Z" id="Shape"></path>
                        <path d="M47.5687104,35.908189 C54.5809455,35.908189 60.2855472,30.2006683 60.2855472,23.1852965 C60.2855472,16.1697222 54.5807431,10.462404 47.5687104,10.462404 C40.5566776,10.462404 34.8518735,16.1699247 34.8518735,23.1852965 C34.8518735,30.2006683 40.5566776,35.908189 47.5687104,35.908189 L47.5687104,35.908189 Z M47.5687104,13.5001506 C52.9065269,13.5001506 57.2492465,17.8449381 57.2492465,23.1852965 C57.2492465,28.5256549 52.9065269,32.8704425 47.5687104,32.8704425 C42.2308938,32.8704425 37.8881742,28.5256549 37.8881742,23.1852965 C37.8881742,17.8449381 42.2308938,13.5001506 47.5687104,13.5001506 L47.5687104,13.5001506 Z" id="Shape"></path>
                        <path d="M47.5687104,29.832696 C51.2323107,29.832696 54.2129459,26.8506415 54.2129459,23.1852965 C54.2129459,19.5199516 51.2323107,16.5380996 47.5687104,16.5380996 C43.90511,16.5380996 40.9244748,19.5201541 40.9244748,23.185499 C40.9244748,26.850844 43.90511,29.832696 47.5687104,29.832696 L47.5687104,29.832696 Z M47.5687104,19.5758461 C49.5580946,19.5758461 51.1766452,21.1951675 51.1766452,23.185499 C51.1766452,25.1758306 49.5580946,26.7949495 47.5687104,26.7949495 C45.5793262,26.7949495 43.9607755,25.175628 43.9607755,23.1852965 C43.9607755,21.194965 45.5793262,19.5758461 47.5687104,19.5758461 L47.5687104,19.5758461 Z" id="Shape"></path>
                        <path d="M44.2065134,78.2774624 C45.0259098,78.457297 45.8351851,77.9394624 46.0151365,77.1200809 C46.1950879,76.3006994 45.677095,75.4906337 44.858306,75.3105966 C39.1158517,74.0481091 34.948023,68.8624733 34.948023,62.980586 C34.948023,56.0182735 40.6097117,50.3538888 47.5687104,50.3538888 C54.5277091,50.3538888 60.1893977,56.0182735 60.1893977,62.980586 C60.1893977,68.8626758 56.021569,74.0481091 50.2791147,75.3105966 C49.4603257,75.4906337 48.9423328,76.3006994 49.1222842,77.1200809 C49.2781476,77.829496 49.906257,78.3133078 50.6035941,78.3133078 C50.711484,78.3133078 50.8211956,78.3017643 50.9309073,78.2776649 C58.0550807,76.7114028 63.2256983,70.2780632 63.2256983,62.980586 C63.2256983,54.3432601 56.2019252,47.3161423 47.5687104,47.3161423 C38.9354955,47.3161423 31.9117224,54.3432601 31.9117224,62.980586 C31.9117224,70.2778607 37.08234,76.7112003 44.2065134,78.2774624 L44.2065134,78.2774624 Z" id="Shape"></path>
                    </g>
                </g>
            </g>
        </g>
    </g>
</svg>