<?xml version="1.0" encoding="UTF-8" standalone="no"?>
<svg width="104px" height="86px" viewBox="0 0 104 86" version="1.1" xmlns="http://www.w3.org/2000/svg" xmlns:xlink="http://www.w3.org/1999/xlink">
    <!-- Generator: Sketch 3.7 (28169) - http://www.bohemiancoding.com/sketch -->
    <title>social</title>
    <desc>Created with Sketch.</desc>
    <defs></defs>
    <g id="Page-1" stroke="none" stroke-width="1" fill="none" fill-rule="evenodd">
        <g id="Icons" transform="translate(-497.000000, -100.000000)" fill="#000000">
            <g id="social" transform="translate(497.000000, 89.000000)">
                <g transform="translate(0.000000, 11.223529)" id="Capa_1">
                    <g>
                        <path d="M33.6629345,85.1715111 C22.1310741,85.1715111 10.9174427,81.8929041 1.23070033,75.6853676 C0.326536552,75.105167 -0.0562877129,73.9816632 0.303478934,72.9686817 C0.663245581,71.9555311 1.69185267,71.310845 2.74826454,71.4630038 C10.8713275,72.4067606 19.3495795,70.7582327 26.4625154,66.6968289 C19.4280771,64.5877627 13.7082621,59.1491442 11.3972446,51.9381044 C11.1481884,51.1598774 11.3280718,50.312595 11.8722994,49.7048062 C12.2044308,49.3361723 12.6425255,49.0877084 13.1177498,48.9864949 C7.62393336,44.8096602 4.15511828,38.2153797 4.15511828,30.9718433 C4.15511828,30.156719 4.58880493,29.2772785 5.29443584,28.862777 C6.00023629,28.4482755 6.87201768,28.3194737 7.58239574,28.7062177 C7.78533668,28.82131 7.99285524,28.9318324 8.20054333,29.0332152 C5.70506488,25.3538162 4.32126876,20.9515361 4.32126876,16.3557993 C4.32126876,12.3678514 5.37751108,8.43541866 7.38877957,4.99094335 C7.76702622,4.33711758 8.44502189,3.9134764 9.20151519,3.85356071 C9.95343088,3.79838411 10.6868666,4.11150284 11.1664989,4.69170339 C20.4980523,16.1164751 34.0042212,23.3600115 48.5713796,24.8474101 C48.5067843,24.1521173 48.4745715,23.4429456 48.4745715,22.7429137 C48.4745715,10.2774031 58.6363686,0.132694641 71.1230857,0.132694641 C76.9212287,0.132694641 82.5350804,2.37530178 86.7234287,6.33549211 C90.5752376,5.45588235 94.2653041,3.97779268 97.7110616,1.93778182 C98.5367277,1.45879479 99.570082,1.52785016 100.321828,2.11735965 C101.069166,2.71600881 101.373662,3.71071086 101.082899,4.62247876 C100.349463,6.91112282 99.2610082,9.05234719 97.8633097,10.9726959 C98.8227439,10.6411286 99.7636981,10.2680941 100.69092,9.85833174 C101.618141,9.43469055 102.729654,9.69263269 103.389339,10.4845692 C104.049024,11.267366 104.109042,12.395609 103.541587,13.2474612 C100.861478,17.2354091 97.5957735,20.7120425 93.8270398,23.5993358 C93.8409422,24.0966022 93.8455198,24.5986077 93.8455198,25.095874 C93.8456894,54.622632 71.3307737,85.1715111 33.6629345,85.1715111 L33.6629345,85.1715111 Z M11.8446641,76.109178 C18.7039662,79.0423389 26.1073263,80.5666347 33.6629345,80.5666347 C68.4477239,80.5666347 89.2328096,52.361407 89.2328096,25.0913042 C89.2328096,24.2485917 89.209752,23.4013093 89.1775391,22.5585968 C89.1453263,21.7849396 89.5050929,21.0481797 90.1323957,20.5969502 C91.7930528,19.3996519 93.3519851,18.0781216 94.7959684,16.6413298 C93.292137,16.9867759 91.7654176,17.2538577 90.2200486,17.4380054 C89.1499039,17.5899949 88.1167192,16.93143 87.7615301,15.9 C87.4109187,14.8731398 87.8261254,13.740327 88.7579244,13.1784058 C90.58914,12.0824903 92.1945266,10.6825956 93.5137275,9.06622597 C91.2118652,9.94583573 88.8408301,10.6318196 86.4192716,11.1014977 C85.6442983,11.2627962 84.8369426,11.0048541 84.2927151,10.4200837 C80.89782,6.80974005 76.0957321,4.73757105 71.1232552,4.73757105 C61.1781318,4.73757105 53.0874513,12.8145111 53.0874513,22.7427445 C53.0874513,24.1196206 53.244277,25.5056365 53.5577589,26.8503545 C53.7191622,27.5503864 53.544026,28.2917162 53.0781265,28.8488983 C52.6168046,29.4015105 51.9203289,29.7836846 51.1960485,29.6685923 C35.4527821,28.8764866 20.6226651,21.8908923 9.96716372,10.3417194 C9.28459043,12.2666379 8.93397901,14.3019097 8.93397901,16.3557993 C8.93397901,22.3974676 11.932317,27.9924762 16.9509091,31.3403078 C17.8089577,31.9113687 18.1824571,32.9749569 17.8688057,33.9559494 C17.5551543,34.9322028 16.5818177,35.5215431 15.604073,35.5584403 C13.403766,35.4893849 11.2171918,35.0979019 9.13234234,34.3980392 C10.5576761,41.5310532 16.0514925,47.1859775 23.2290236,48.62717 C24.2806883,48.8390752 25.0463368,49.7369643 25.0787192,50.8052916 C25.1156792,51.869049 24.4146259,52.8221147 23.3858493,53.1078144 C21.397808,53.6467171 19.3082114,53.9505269 17.2647301,53.9090598 C20.3552985,59.3657885 26.1581887,62.9162164 32.634497,63.0451875 C33.6078336,63.0636361 34.4657126,63.6990132 34.7747864,64.6200901 C35.0838602,65.5411669 34.7747864,66.5634572 34.0089683,67.1622757 C27.5280824,72.2319218 19.9353447,75.2803443 11.8446641,76.109178 L11.8446641,76.109178 Z" id="Shape"></path>
                    </g>
                </g>
            </g>
        </g>
    </g>
</svg>