<svg width="96" height="132" viewBox="0 0 96 132" xmlns="http://www.w3.org/2000/svg"><title>food-1</title><g fill="#000" fill-rule="evenodd"><path d="M54.168 99.178c3.842 0 7.14-1.267 9.539-3.664 3.129-3.137 4.314-7.739 3.35-12.975-.911-4.955-3.67-9.943-7.769-14.043-5.066-5.069-11.592-8.095-17.456-8.095-3.845 0-7.145 1.269-9.544 3.669-3.122 3.123-4.31 7.73-3.345 12.97.911 4.956 3.67 9.943 7.769 14.043 5.066 5.069 11.592 8.095 17.456 8.095zM33.982 68.734l5.468 5.471c.41.41.947.615 1.484.615s1.075-.205 1.485-.615a2.1 2.1 0 0 0 0-2.97l-5.47-5.471c1.37-.766 3.024-1.163 4.883-1.163 4.776 0 10.192 2.566 14.488 6.865 3.503 3.504 5.85 7.707 6.61 11.834.54 2.931.213 5.535-.912 7.545l-13.664-13.67a2.1 2.1 0 0 0-2.968 2.97l13.666 13.67c-1.37.766-3.025 1.164-4.883 1.164-4.776 0-10.192-2.567-14.489-6.865-3.503-3.505-5.85-7.707-6.609-11.834-.54-2.932-.213-5.535.911-7.546z"/><path d="M93.47 16.801h-6.756l-3.8-15.206a2.099 2.099 0 0 0-2.036-1.59H15.122c-.963 0-1.803.655-2.036 1.59L9.286 16.8H2.53c-1.16 0-2.099.94-2.099 2.1v11.198c0 1.16.94 2.1 2.099 2.1h2.268L8.48 75.781a2.1 2.1 0 1 0 4.182-.353l-2.114-25.034h74.905l-4.966 58.79H15.513L13.37 83.796a2.098 2.098 0 1 0-4.182.353l3.843 45.507a2.099 2.099 0 0 0 2.092 1.923h65.756c1.09 0 2-.836 2.092-1.923l8.232-97.459h2.268c1.16 0 2.099-.94 2.099-2.1V18.902c0-1.16-.94-2.1-2.099-2.1zm-76.42 110.58l-1.182-13.997h64.264L78.95 127.38h-61.9zm68.757-81.185H10.193L9.01 32.198h77.978l-1.182 13.998zm5.564-18.197H4.63V21H76.68a2.099 2.099 0 0 0 0-4.199H13.612L16.76 4.203h62.48l3.8 15.207A2.1 2.1 0 0 0 85.075 21h6.295v7z"/></g></svg>