<svg width="115" height="115" viewBox="0 0 115 115" xmlns="http://www.w3.org/2000/svg"><title>signs</title><path d="M104.886 66.769l9.716-9.46-9.716-9.461 5.353-12.455-12.6-5.026.174-13.554-13.566.175L79.217 4.4 66.751 9.748 57.28.04l-9.468 9.708-12.467-5.349-5.03 12.59-13.566-.176.175 13.554-12.6 5.026 5.353 12.455-9.717 9.46 9.717 9.46-5.353 12.456 12.6 5.025-.175 13.554 13.566-.175 5.03 12.59 12.467-5.349 9.469 9.708 9.469-9.708 12.466 5.349 5.03-12.59 13.566.175-.175-13.554 12.6-5.025-5.352-12.455zm-60.321-1.087h-3.06l-7.583-9.404v9.404H30.12V49.235h2.968l7.674 9.66v-9.66h3.803v16.447zm15.882 0h-11.57V49.235h11.361v3.336h-7.559v3.197h6.492v3.08H52.68v3.499h7.768v3.335zm19.916 0h-3.176l-2.62-6.44-2.597 6.44h-3.2L62.21 49.235h4.127l4.15 12.092 1.623-4.424-2.712-7.644h3.5l1.67 5.258 1.67-5.258h3.523l-2.759 7.644 1.67 4.424 4.127-12.092h4.15l-6.585 16.447z" fill="#000" fill-rule="evenodd"/></svg>