<svg width="115" height="115" viewBox="0 0 115 115" xmlns="http://www.w3.org/2000/svg"><title>tool</title><path d="M114.503 98.34L102.67 3.044A3.47 3.47 0 0 0 98.794.027L3.412 11.85a3.472 3.472 0 0 0-3.046 3.445v96.027a3.472 3.472 0 0 0 3.474 3.47h96.113a3.473 3.473 0 0 0 3.474-3.47v-8.111l8.057-1a3.47 3.47 0 0 0 3.02-3.871zm-102.67 9.51h-4.52V71.459l4.52 36.39zM8.037 23.244a3.5 3.5 0 0 0-.317.055l-.684-5.516L96.73 6.665l.684 5.5L8.038 23.244zm88.441 84.606H65.995l30.484-3.779v3.779zm-78.315-.453L8.572 30.152c.107-.003.213-.006.32-.02L98.27 19.055l9.59 77.225-89.695 11.118z" fill="#000" fill-rule="evenodd"/></svg>