<svg width="104" height="86" viewBox="0 0 104 86" xmlns="http://www.w3.org/2000/svg"><title>social</title><path d="M33.663 85.395A59.988 59.988 0 0 1 1.23 75.909a2.306 2.306 0 0 1-.928-2.717c.36-1.013 1.389-1.658 2.445-1.505 8.123.943 16.602-.705 23.715-4.767-7.035-2.109-12.755-7.547-15.066-14.758a2.294 2.294 0 0 1 1.72-2.952c-5.493-4.177-8.962-10.771-8.962-18.015 0-.815.434-1.694 1.14-2.109.705-.414 1.577-.543 2.287-.156.203.115.41.225.619.327a22.569 22.569 0 0 1-3.88-12.678c0-3.988 1.057-7.92 3.068-11.365a2.3 2.3 0 0 1 1.813-1.137 2.33 2.33 0 0 1 1.964.838c9.332 11.425 22.838 18.669 37.405 20.156a22.862 22.862 0 0 1-.096-2.105c0-12.465 10.161-22.61 22.648-22.61a22.779 22.779 0 0 1 15.6 6.203 38.244 38.244 0 0 0 10.988-4.398 2.332 2.332 0 0 1 2.61.18 2.31 2.31 0 0 1 .762 2.505 22.404 22.404 0 0 1-3.22 6.35c.96-.331 1.9-.704 2.828-1.114a2.289 2.289 0 0 1 2.698.626c.66.783.72 1.911.153 2.763a43.714 43.714 0 0 1-9.715 10.352c.014.497.019 1 .019 1.496 0 29.527-22.515 60.076-60.183 60.076zm-21.818-9.062a55.424 55.424 0 0 0 21.818 4.457c34.785 0 55.57-28.205 55.57-55.475 0-.843-.023-1.69-.055-2.533a2.299 2.299 0 0 1 .954-1.962 38.677 38.677 0 0 0 4.664-3.955c-1.504.345-3.03.612-4.576.797-1.07.152-2.103-.507-2.458-1.538a2.308 2.308 0 0 1 .996-2.722 18.22 18.22 0 0 0 4.756-4.112 42.6 42.6 0 0 1-7.095 2.035 2.275 2.275 0 0 1-2.126-.681 18.144 18.144 0 0 0-13.17-5.683c-9.945 0-18.036 8.077-18.036 18.005 0 1.377.157 2.763.47 4.108a2.31 2.31 0 0 1-.479 1.998c-.461.553-1.158.935-1.882.82-15.743-.792-30.573-7.778-41.229-19.327a18 18 0 0 0-1.033 6.014 17.97 17.97 0 0 0 8.017 14.985 2.296 2.296 0 0 1 .918 2.615c-.314.977-1.287 1.566-2.265 1.603a22.59 22.59 0 0 1-6.472-1.16c1.426 7.133 6.92 12.788 14.097 14.229a2.294 2.294 0 0 1 1.85 2.178 2.31 2.31 0 0 1-1.693 2.302c-1.988.54-4.078.843-6.121.802a18.071 18.071 0 0 0 15.37 9.136 2.304 2.304 0 1 1 1.374 4.117c-6.48 5.07-14.074 8.118-22.164 8.947z" fill="#000" fill-rule="evenodd"/></svg>