<svg xmlns="http://www.w3.org/2000/svg" width="1024" height="312" viewBox="0 0 1024 312"><title>Group</title><g fill="none" fill-rule="evenodd"><path fill="#E7790E" d="M1024.81 0l-.81 312L-1.52 0"/><path d="M937.082 72.224l-4.333-15.112c-2.296-7.997-10.578-12.644-18.49-10.376-7.91 2.27-12.47 10.598-10.18 18.596l4.335 15.11m-.624.18c-.615.177-2.145-.446-2.496-1.666l-1.444-5.037c-.35-1.224.187-2.44 1.398-2.786l3.575-1.026 2.707 9.44-3.74 1.07zm29.915-8.578c.615-.176 1.584-1.515 1.234-2.736l-1.445-5.037c-.35-1.22-1.448-1.964-2.66-1.616l-3.575 1.025 2.71 9.44 3.74-1.074zm-4.958-14.932c-2.294-7.997-10.576-12.644-18.487-10.376-7.91 2.27-12.47 10.598-10.18 18.596m5.585 14.753l1.987 6.93m-11.838 76.125c5.106-1.743 10.032-5.906 12.926-11.128 5.387-9.717 3.088-21.865-5.43-26.587-8.52-4.722-20.153-.01-25.54 9.707-2.893 5.22-3.692 11.386-2.474 16.635l20.518 11.374zm-18.787-10.413c1.26 3.34 3.533 6.19 6.734 7.963 3.204 1.774 6.826 2.193 10.325 1.49l-17.056-9.453zm4.84 7.256l3.498 1.94-8.242 14.868-3.498-1.94 8.242-14.865zm-1.75 17.324a1.856 1.856 0 0 1-2.604.843l-5.248-2.91a1.857 1.857 0 0 1-.666-2.655l5.98-9.262c.592-.928 1.87-1.25 2.83-.716l3.5 1.94c.96.532 1.364 1.785.892 2.78l-4.686 9.98m29.28 11.657a5.135 5.135 0 0 1-6.974 2 5.125 5.125 0 0 1-1.99-6.97 5.117 5.117 0 0 1 6.96-1.995 5.122 5.122 0 0 1 2.004 6.962zm8.242-14.868a5.138 5.138 0 0 1-6.975 2 5.126 5.126 0 0 1-1.99-6.97 5.116 5.116 0 0 1 6.96-1.996 5.127 5.127 0 0 1 2.004 6.966z" stroke-width="2" stroke="#555"/><path d="M758.888 212.076l35.784-5.668 1.19 7.506-35.785 5.668-1.19-7.506zm1.016-3.24l32.8-5.194m-10.138-6.1l4.474-.708.953 6.015-4.474.706-.956-6.015zm-5.778 8.904l-33.762-25.735m-1.872-9.97l21.084-29.883m-18.05 34.336c.612 3.873-2 7.507-5.844 8.115-3.842.61-7.46-2.038-8.073-5.91-.61-3.87 2.014-7.497 5.857-8.105 3.842-.61 7.45 2.03 8.062 5.9zm-3.18.505c.332 2.104-1.086 4.08-3.17 4.41-2.094.332-4.054-1.11-4.387-3.213-.33-2.104 1.09-4.07 3.18-4.402 2.087-.33 4.045 1.1 4.38 3.205m49.336-25.573l-28.327 4.487.43-26.24 19.38-3.07 8.516 24.823zm-13.252 8.002c3.16-.5 5.31-3.484 4.807-6.664l-11.44 1.81c.506 3.18 3.473 5.354 6.633 4.854zm-13.346-2.25l2.983-.473 1.428 9.02-2.983.47-1.428-9.016z" stroke="#555" stroke-width="2" stroke-linejoin="round"/><path d="M846.925 72.385c-.585 4.764-5.426 8.09-10.806 7.428-5.37-.66-9.265-5.056-8.68-9.82l2.394-19.504c.585-4.767 5.1-5.42 10.468-4.76 5.38.66 9.59 2.384 9.006 7.15l-2.386 19.503zm-17.655-17.28l19.483 2.39-19.483-2.39zm-31.144-28.217c2.69.33 4.604 2.792 4.273 5.492l-.55 4.457c-.33 2.7 1.572 5.16 4.262 5.49 2.69.33 5.143-1.595 5.474-4.295l.548-4.456c.33-2.7 2.784-4.626 5.474-4.295 2.69.33 4.603 2.795 4.27 5.494l-.546 4.457c-.33 2.7 1.573 5.16 4.263 5.49 2.69.33 5.143-1.595 5.474-4.295l.547-4.456c.33-2.7 2.784-4.626 5.473-4.296 2.69.33 4.596 2.79 4.264 5.49l-2.35 19.137m-167.384.437l-5.47-.575.52-4.97-29.834-3.137-3.293 31.328c-.173 1.65 1.464 3.674 3.115 3.847l23.87 2.51c1.65.173 2.677-1.57 2.85-3.22l.262-2.487 5.47.574c1.65.174 2.68-1.568 2.852-3.22l1.882-17.9c.173-1.652-.574-2.575-2.225-2.748zm-2.344 4.78l-3.65-.383-1.463 13.924 3.65.383c.457.05.42-.83.467-1.287l1.29-12.272c.048-.457.164-.314-.294-.362zm-26.854-29.97s1.8 3.628-.732 6.96c-2.522 3.336-.723 6.884-.723 6.884m7.63-15.205s1.802 3.628-.73 6.962c-2.523 3.334-.724 6.882-.724 6.882m7.63-15.207s1.802 3.628-.73 6.962c-2.523 3.334-.724 6.882-.724 6.882m7.21-11.228s1.8 3.627-.73 6.96c-2.524 3.336-.725 6.883-.725 6.883m7.213-11.228s1.8 3.63-.73 6.962c-2.525 3.335-.726 6.882-.726 6.882m-1.404 34.12l-29.835-3.137 29.836 3.136zm-10.38-16.044a2.995 2.995 0 0 0-2.67-3.297 2.996 2.996 0 0 0-3.296 2.67 3.003 3.003 0 0 0 2.67 3.296 3.003 3.003 0 0 0 3.297-2.67zm8.952.94a2.997 2.997 0 0 0-2.67-3.296 2.994 2.994 0 0 0-3.297 2.67 3 3 0 0 0 2.67 3.295 3.003 3.003 0 0 0 3.297-2.67zm-17.902-1.88a2.996 2.996 0 0 0-2.67-3.297 2.996 2.996 0 0 0-3.297 2.67 3.005 3.005 0 0 0 2.67 3.296 3.004 3.004 0 0 0 3.298-2.67z" stroke-width="2" stroke="#555"/></g></svg>