<?xml version="1.0" encoding="UTF-8" standalone="no"?>
<svg width="96px" height="56px" viewBox="0 0 96 56" version="1.1" xmlns="http://www.w3.org/2000/svg" xmlns:xlink="http://www.w3.org/1999/xlink">
    <!-- Generator: Sketch 3.7 (28169) - http://www.bohemiancoding.com/sketch -->
    <title>transport</title>
    <desc>Created with Sketch.</desc>
    <defs></defs>
    <g id="Page-1" stroke="none" stroke-width="1" fill="none" fill-rule="evenodd">
        <g id="Icons" transform="translate(-146.000000, -112.000000)" fill="#000000">
            <g id="aesthetic" transform="translate(14.000000, 89.000000)">
                <g id="transport" transform="translate(132.431290, 23.605316)">
                    <g id="Capa_1">
                        <path d="M76.6441064,18.5635156 C75.355015,18.5635156 74.0959886,18.7015511 72.8797946,18.9561958 L68.3078444,3.07056996 L73.8324044,3.07056996 C75.7886933,3.07056996 77.3784355,4.66148121 77.3784355,6.61952582 C77.3784355,8.57674634 75.7886933,10.1672455 73.8324044,10.1672455 C73.0474177,10.1672455 72.4156393,10.8022091 72.4156393,11.5846852 C72.4156393,12.3688096 73.0474177,13.0033611 73.8324044,13.0033611 C77.3508415,13.0033611 80.2094945,10.1392264 80.2094945,6.61911378 C80.2094945,3.09900116 77.3508415,0.233630323 73.8344636,0.233630323 L62.2281102,0.233630323 C61.4435353,0.233630323 60.808874,0.868593865 60.808874,1.65230617 C60.808874,2.43601847 61.4435353,3.06974587 62.2281102,3.06974587 L65.4005931,3.06974587 C65.4084182,3.13979376 65.395239,3.21396212 65.4154197,3.28318592 L67.7378436,11.3510549 L38.3296724,11.3510549 L36.0163093,3.30996893 L43.7253233,3.30996893 C44.5115455,3.30996893 45.1449713,2.67500539 45.1449713,1.88882081 C45.1449713,1.10593261 44.5115455,0.471381111 43.7253233,0.471381111 L28.126493,0.471381111 C27.3415063,0.471381111 26.7072568,1.10593261 26.7072568,1.88882081 C26.7072568,2.67541744 27.3419181,3.30996893 28.126493,3.30996893 L33.0658137,3.30996893 L35.5612147,11.9835462 L27.7928942,21.2356366 C25.0269076,19.5495427 21.7889404,18.5635156 18.3195135,18.5635156 C8.21435436,18.5635156 0,26.7842538 0,36.8905165 C0,47.0021357 8.21435436,55.2212258 18.3195135,55.2212258 C28.1038412,55.2212258 36.0949727,47.5035962 36.5941353,37.8386353 L38.5277724,37.8386353 C39.0895363,40.9949109 41.8382252,43.3987897 45.1470306,43.3987897 C48.8610966,43.3987897 51.8869608,40.3727208 51.8869608,36.6544139 C51.8869608,35.1842322 51.4030367,33.8339561 50.601576,32.7280235 L68.8799045,15.3128813 L70.1640537,19.7675152 C63.2597952,22.3934871 58.3270641,29.067403 58.3270641,36.8901044 C58.3270641,46.9988394 66.5475962,55.2183415 76.6465775,55.2183415 C86.7505011,55.2183415 94.966091,46.9988394 94.966091,36.8901044 C94.966091,26.7842538 86.7459707,18.5635156 76.6441064,18.5635156 L76.6441064,18.5635156 Z M36.5088822,15.2663201 L41.1183109,31.2800923 C39.9095302,32.1882427 39.0232284,33.4857768 38.6381483,34.996339 L36.542654,34.996339 C36.0459625,30.1461406 33.6489937,25.8620939 30.1140825,22.8825862 L36.5088822,15.2663201 L36.5088822,15.2663201 Z M22.3511161,34.9988113 C22.1591939,34.3411852 21.8457758,33.7490745 21.426924,33.2323683 L28.2908212,25.055307 C31.2009555,27.5144001 33.1885451,31.0217392 33.6765877,34.996339 L22.3511161,34.9988113 L22.3511161,34.9988113 L22.3511161,34.9988113 Z M18.3195135,52.3814018 C9.78062107,52.3814018 2.83476566,45.4314148 2.83476566,36.8905165 C2.83476566,28.3475579 9.78020922,21.4025154 18.3195135,21.4025154 C21.0957964,21.4025154 23.6974548,22.1450231 25.9548063,23.4297838 L19.0872024,31.6113777 C18.5843332,31.4432627 18.0551056,31.330362 17.4933418,31.330362 C14.6882293,31.330362 12.411109,33.6159835 12.411109,36.4187233 C12.411109,39.2239354 14.6907004,41.5021401 17.4933418,41.5021401 C19.8017627,41.5021401 21.7329288,39.9511973 22.3560583,37.8341028 L33.7568985,37.8341028 C33.2626781,45.9382319 26.5379863,52.3814018 18.3195135,52.3814018 L18.3195135,52.3814018 Z M48.4813706,30.8313738 C47.4945773,30.2619256 46.367343,29.9153946 45.1470306,29.9153946 C44.6569287,29.9153946 44.1816534,29.9730811 43.7174981,30.0736204 L39.1484309,14.1875825 L65.9479421,14.1875825 L48.4813706,30.8313738 L48.4813706,30.8313738 Z M76.6441064,52.3814018 C68.1072733,52.3814018 61.1605942,45.4314148 61.1605942,36.8905165 C61.1605942,30.3620529 65.2230856,24.7759395 70.9510996,22.498971 L75.2244584,37.3396471 C75.3999066,37.9597769 75.9715549,38.3660547 76.5835644,38.3660547 C76.7165921,38.3660547 76.8496197,38.3483367 76.9748222,38.3129007 C77.7268609,38.0974004 78.1634222,37.3070954 77.9476126,36.5542866 L73.6693117,21.6868275 C74.6322177,21.5022307 75.6305428,21.3967468 76.6461657,21.3967468 C85.1850581,21.3967468 92.132149,28.3442616 92.132149,36.8851599 C92.1325609,45.4359473 85.1854699,52.3814018 76.6441064,52.3814018 L76.6441064,52.3814018 Z" id="Shape"></path>
                    </g>
                </g>
            </g>
        </g>
    </g>
</svg>