<?xml version="1.0" encoding="UTF-8" standalone="no"?>
<svg width="96px" height="65px" viewBox="0 0 96 65" version="1.1" xmlns="http://www.w3.org/2000/svg" xmlns:xlink="http://www.w3.org/1999/xlink">
    <!-- Generator: Sketch 3.7 (28169) - http://www.bohemiancoding.com/sketch -->
    <title>cutlery</title>
    <desc>Created with Sketch.</desc>
    <defs></defs>
    <g id="Page-1" stroke="none" stroke-width="1" fill="none" fill-rule="evenodd">
        <g id="Icons" transform="translate(-254.000000, -597.000000)" fill="#000000">
            <g id="aesthetic" transform="translate(14.000000, 89.000000)">
                <g id="cutlery" transform="translate(240.126850, 508.095568)">
                    <g id="Group">
                        <path d="M66.2707031,17.3777327 C65.6043363,17.8870616 65.4768117,18.8403064 65.9858981,19.506788 C68.8351626,23.2377483 70.3409653,27.6971602 70.3409653,32.4026295 C70.3409653,44.1277235 60.806374,53.6668552 49.0868607,53.6668552 C37.3673474,53.6668552 27.8327561,44.1277235 27.8327561,32.4026295 C27.8327561,20.6775355 37.3673474,11.1384039 49.0868607,11.1384039 C53.7900904,11.1384039 58.2473798,12.6449237 61.9767667,15.4957475 C62.6427286,16.0050763 63.5957222,15.877491 64.1048086,15.2108069 C64.613895,14.5443253 64.4863704,13.5910804 63.8200036,13.0817516 C59.5568351,9.82305966 54.462125,8.10065738 49.0868607,8.10065738 C35.6931312,8.10065738 24.7964554,19.0025221 24.7964554,32.4026295 C24.7964554,45.802737 35.6931312,56.7046017 49.0868607,56.7046017 C62.4805902,56.7046017 73.377266,45.802737 73.377266,32.4026295 C73.377266,27.0248056 71.6556835,21.9276695 68.3985426,17.6626734 C67.8896586,16.9961918 66.9370699,16.8684039 66.2707031,17.3777327 L66.2707031,17.3777327 Z" id="Shape"></path>
                        <path d="M49.0868607,0 C31.2285547,0 16.6996536,14.5356171 16.6996536,32.4026295 C16.6996536,50.269642 31.2285547,64.8052591 49.0868607,64.8052591 C66.9453691,64.8052591 81.4740677,50.269642 81.4740677,32.4026295 C81.4740677,14.5356171 66.9453691,0 49.0868607,0 L49.0868607,0 Z M49.0868607,61.7675125 C32.9027709,61.7675125 19.7359543,48.594426 19.7359543,32.4026295 C19.7359543,16.210833 32.9027709,3.03774652 49.0868607,3.03774652 C65.2709505,3.03774652 78.4377671,16.210833 78.4377671,32.4026295 C78.4377671,48.594426 65.2709505,61.7675125 49.0868607,61.7675125 L49.0868607,61.7675125 Z" id="Shape"></path>
                        <path d="M13.663353,0 C12.8249292,0 12.1452026,0.679847671 12.1452026,1.51887326 L12.1452026,14.1761504 L9.10890198,14.1761504 L9.10890198,1.51887326 C9.10890198,0.679847671 8.42917548,0 7.59075165,0 C6.75232783,0 6.07260132,0.679847671 6.07260132,1.51887326 L6.07260132,14.1761504 L3.03630066,14.1761504 L3.03630066,1.51887326 C3.03630066,0.679847671 2.35657415,0 1.51815033,0 C0.679726508,0 0,0.679847671 0,1.51887326 L0,19.7453524 C0,23.412925 2.61202825,26.4812515 6.07260132,27.1868188 L6.07260132,63.2863858 C6.07260132,64.1254114 6.75232783,64.8052591 7.59075165,64.8052591 C8.42917548,64.8052591 9.10890198,64.1254114 9.10890198,63.2863858 L9.10890198,27.1868188 C12.5694751,26.4812515 15.1815033,23.412925 15.1815033,19.7453524 L15.1815033,1.51887326 C15.1815033,0.679847671 14.5017768,0 13.663353,0 L13.663353,0 Z M7.59075165,24.3019721 C5.07932617,24.3019721 3.03630066,22.2577713 3.03630066,19.7453524 L3.03630066,17.2138969 L12.1452026,17.2138969 L12.1452026,19.7453524 C12.1452026,22.2577713 10.1021771,24.3019721 7.59075165,24.3019721 L7.59075165,24.3019721 Z" id="Shape"></path>
                        <path d="M93.6192704,0 C89.4336287,0 86.0285187,3.40673146 86.0285187,7.5943663 L86.0285187,35.4403761 C86.0285187,36.2794016 86.7080428,36.9592493 87.5466691,36.9592493 L92.1011201,36.9592493 L92.1011201,63.2863858 C92.1011201,64.1254114 92.7806441,64.8052591 93.6192704,64.8052591 C94.4578966,64.8052591 95.1374207,64.1254114 95.1374207,63.2863858 L95.1374207,1.51887326 C95.1374207,0.679847671 94.4578966,0 93.6192704,0 L93.6192704,0 Z M92.1011201,33.9215028 L89.0648194,33.9215028 L89.0648194,7.5943663 C89.0648194,5.6141606 90.3339931,3.92497102 92.1011201,3.29798014 L92.1011201,33.9215028 L92.1011201,33.9215028 Z" id="Shape"></path>
                    </g>
                </g>
            </g>
        </g>
    </g>
</svg>