<?xml version="1.0" encoding="UTF-8" standalone="no"?>
<svg width="105px" height="97px" viewBox="0 0 105 97" version="1.1" xmlns="http://www.w3.org/2000/svg" xmlns:xlink="http://www.w3.org/1999/xlink">
    <!-- Generator: Sketch 3.7 (28169) - http://www.bohemiancoding.com/sketch -->
    <title>envelope</title>
    <desc>Created with Sketch.</desc>
    <defs></defs>
    <g id="Page-1" stroke="none" stroke-width="1" fill="none" fill-rule="evenodd">
        <g id="Icons" transform="translate(-764.000000, -89.000000)" fill="#000000">
            <g id="social" transform="translate(497.000000, 89.000000)">
                <g id="envelope" transform="translate(267.740984, 0.000000)">
                    <g id="Group">
                        <path d="M103.290162,40.0086569 L103.290392,40.0084275 L90.0025694,31.2140934 L90.0025694,1.81920097 C90.0025694,0.868995369 89.2309087,0.0986451976 88.2790866,0.0986451976 L15.7802084,0.0986451976 C14.8283863,0.0986451976 14.0567257,0.868995369 14.0567257,1.81920097 L14.0567257,31.2161581 L0.7712011,40.0084275 L0.771430898,40.0088863 C0.306779937,40.3169805 -9.5467609e-15,40.8437 -9.5467609e-15,41.4424534 L-9.5467609e-15,94.7246245 C-9.5467609e-15,95.6748301 0.771660696,96.4451803 1.72348279,96.4451803 L102.33811,96.4451803 C103.289932,96.4451803 104.061593,95.6748301 104.061593,94.7246245 L104.061593,41.4424534 C104.061593,40.8437 103.754813,40.3169805 103.290162,40.0086569 L103.290162,40.0086569 Z M14.0567257,46.0257845 L8.65073463,43.1630091 L14.0567257,43.1630091 L14.0567257,46.0257845 L14.0567257,46.0257845 Z M3.44696558,44.3027053 L43.0813249,65.2911916 L3.44696558,91.5186556 L3.44696558,44.3027053 L3.44696558,44.3027053 Z M52.0301071,63.4974549 L96.6193645,93.0040687 L7.44107951,93.0040687 L52.0301071,63.4974549 L52.0301071,63.4974549 Z M60.9795788,65.291421 L100.614398,44.3027053 L100.614398,91.5195732 L60.9795788,65.291421 L60.9795788,65.291421 Z M90.0025694,43.1630091 L95.4110882,43.1630091 L90.0025694,46.0269316 L90.0025694,43.1630091 L90.0025694,43.1630091 Z M96.6193645,39.7218976 L90.0025694,39.7218976 L90.0025694,35.3425096 L96.6193645,39.7218976 L96.6193645,39.7218976 Z M86.5556038,3.53975674 L86.5556038,47.8523265 L57.7097872,63.1276501 L52.982159,59.9992209 C52.405137,59.6172575 51.6548475,59.6172575 51.0778254,59.9992209 L46.3508866,63.1271913 L17.5036912,47.8511795 L17.5036912,3.53975674 L86.5556038,3.53975674 L86.5556038,3.53975674 Z M14.0567257,39.7218976 L7.44268809,39.7218976 L14.0567257,35.3448037 L14.0567257,39.7218976 L14.0567257,39.7218976 Z" id="Shape"></path>
                        <path d="M52.0296475,45.3471973 L65.7609796,45.3471973 C66.7128017,45.3471973 67.4844624,44.5768472 67.4844624,43.6266416 C67.4844624,42.676436 66.7128017,41.9060858 65.7609796,41.9060858 L52.0296475,41.9060858 C45.4084862,41.9060858 40.0217982,36.5285461 40.0217982,29.9186296 L40.0217982,29.410951 C40.0217982,22.8010345 45.4084862,17.4234948 52.0296475,17.4234948 C58.6508088,17.4234948 64.0374968,22.8010345 64.0374968,29.410951 L64.0374968,30.6802623 C64.0374968,32.1110765 62.8715033,33.2753192 61.4380252,33.2753192 C60.0045471,33.2753192 58.8385535,32.1113059 58.8385535,30.6802623 L58.8385535,28.2687313 C58.8385535,24.1705969 55.4989035,20.8363892 51.3937973,20.8363892 C47.2886911,20.8363892 43.949041,24.1703675 43.949041,28.2687313 C43.949041,32.3668658 47.2886911,35.700844 51.3937973,35.700844 C53.2710147,35.700844 54.9869142,35.0022984 56.2976803,33.8536554 C57.3648609,35.5703112 59.2694242,36.7162014 61.4380252,36.7162014 C64.7719303,36.7162014 67.4844624,34.0085054 67.4844624,30.6800329 L67.4844624,29.4107216 C67.4844624,20.9033762 60.5514656,13.9821538 52.0296475,13.9821538 C43.5078294,13.9821538 36.5748326,20.9033762 36.5748326,29.4107216 L36.5748326,29.9184002 C36.5748326,38.425975 43.5078294,45.3471973 52.0296475,45.3471973 L52.0296475,45.3471973 Z M51.3937973,32.2597325 C49.1893479,32.2597325 47.3960066,30.4694369 47.3960066,28.2687313 C47.3960066,26.0680258 49.1895777,24.2775008 51.3937973,24.2775008 C53.5980169,24.2775008 55.391588,26.0680258 55.391588,28.2687313 C55.391588,30.4694369 53.5982467,32.2597325 51.3937973,32.2597325 L51.3937973,32.2597325 Z" id="Shape"></path>
                    </g>
                </g>
            </g>
        </g>
    </g>
</svg>