<?xml version="1.0" encoding="UTF-8" standalone="no"?>
<svg width="95px" height="105px" viewBox="0 0 95 105" version="1.1" xmlns="http://www.w3.org/2000/svg" xmlns:xlink="http://www.w3.org/1999/xlink">
    <!-- Generator: Sketch 3.7 (28169) - http://www.bohemiancoding.com/sketch -->
    <title>food-2</title>
    <desc>Created with Sketch.</desc>
    <defs></defs>
    <g id="Page-1" stroke="none" stroke-width="1" fill="none" fill-rule="evenodd">
        <g id="Icons" transform="translate(-14.000000, -291.000000)" fill="#000000">
            <g id="aesthetic" transform="translate(14.000000, 89.000000)">
                <g id="food-2" transform="translate(0.000000, 202.929568)">
                    <g id="Group">
                        <path d="M78.4670102,35.4011432 L71.5715292,35.4011432 L71.5715292,34.8503172 C71.5715292,33.9377088 70.8322322,33.1978394 69.9198379,33.1978394 C69.0074436,33.1978394 68.2681466,33.9377088 68.2681466,34.8503172 L68.2681466,72.0722707 C68.2681466,72.9848791 69.0074436,73.7247485 69.9198379,73.7247485 C70.8322322,73.7247485 71.5715292,72.9848791 71.5715292,72.0722707 L71.5715292,71.5214447 L78.4670102,71.5214447 C82.686531,71.5214447 86.1194063,68.0869348 86.1194063,63.8654047 L86.1194063,43.0571832 C86.1194063,38.8356531 82.686531,35.4011432 78.4670102,35.4011432 L78.4670102,35.4011432 Z M82.8160236,63.8654047 C82.8160236,66.2645822 80.8650458,68.216489 78.4670102,68.216489 L71.5715292,68.216489 L71.5715292,38.7060989 L78.4670102,38.7060989 C80.8650458,38.7060989 82.8160236,40.6580057 82.8160236,43.0571832 L82.8160236,63.8654047 L82.8160236,63.8654047 Z" id="Shape"></path>
                        <path d="M78.4670102,26.587928 L71.5715292,26.587928 L71.5715292,19.1984877 C71.5715292,18.2858792 70.8322322,17.5460098 69.9198379,17.5460098 L69.1424419,17.5460098 C68.3284884,11.2020372 62.90037,6.2820598 56.3416138,6.2820598 C55.1783827,6.2820598 54.0323291,6.43673173 52.9206307,6.74277063 C49.2664288,2.44280293 44.0083245,1.6517295e-15 38.3176973,1.6517295e-15 C32.6270701,1.6517295e-15 27.3689658,2.44280293 23.7143235,6.74299096 C22.6028453,6.43695206 21.4565715,6.28228013 20.2933404,6.28228013 C13.7345842,6.28228013 8.30646582,11.2020372 7.49251233,17.5462302 L6.7153365,17.5462302 C5.80316244,17.5462302 5.06364517,18.2860996 5.06364517,19.198708 L5.06364517,86.6427187 C2.11812896,88.1603544 0.20899401,91.2260313 0.20899401,94.6034757 C0.20899401,99.5395372 4.22282417,103.555279 9.15653629,103.555279 L67.4786381,103.555279 C72.4123502,103.555279 76.4264006,99.5395372 76.4264006,94.6034757 C76.4264006,91.2260313 74.5172657,88.1603544 71.5717495,86.6427187 L71.5717495,80.3346599 L78.4672304,80.3346599 C87.5440451,80.3346599 94.9286469,72.9465416 94.9286469,63.8654047 L94.9286469,43.0571832 C94.9284267,33.9760463 87.5438249,26.587928 78.4670102,26.587928 L78.4670102,26.587928 Z M20.2933404,9.58723583 C21.4644996,9.58723583 22.6116543,9.79765135 23.7033122,10.2125335 C24.3908562,10.4738453 25.1684725,10.248888 25.6102449,9.66060585 C28.6442918,5.62150932 33.2760747,3.3049557 38.3176973,3.3049557 C43.3593199,3.3049557 47.9911029,5.62150932 51.0251498,9.66038552 C51.4669221,10.2486676 52.244098,10.4738453 52.9318622,10.2123131 C54.0235201,9.79743102 55.170895,9.5870155 56.341834,9.5870155 C61.0755814,9.5870155 65.0178383,13.03122 65.8036029,17.5460098 L10.8315715,17.5460098 C11.6173362,13.0314403 15.559593,9.58723583 20.2933404,9.58723583 L20.2933404,9.58723583 Z M91.625044,63.8654047 C91.625044,71.124189 85.7223397,77.0297042 78.4670102,77.0297042 L69.9198379,77.0297042 C69.0074436,77.0297042 68.2681466,77.7695736 68.2681466,78.6821821 L68.2681466,87.7241002 C68.2681466,88.4236492 68.7083774,89.0471842 69.3670719,89.2813953 C71.6133721,90.079432 73.1227977,92.218179 73.1227977,94.6034757 C73.1227977,97.7171846 70.590865,100.250323 67.4784179,100.250323 L9.15653629,100.250323 C6.04430937,100.250323 3.51237667,97.7169643 3.51237667,94.6034757 C3.51237667,92.218179 5.0215821,90.079432 7.26810254,89.2813953 C7.92701727,89.0471842 8.36702784,88.4236492 8.36702784,87.7241002 L8.36702784,20.8509655 L68.2683668,20.8509655 L68.2683668,28.2404058 C68.2683668,29.1530143 69.0076638,29.8928837 69.9200581,29.8928837 L78.4672304,29.8928837 C85.7225599,29.8928837 91.6252643,35.7983989 91.6252643,43.0571832 L91.6252643,63.8654047 L91.625044,63.8654047 Z" id="Shape"></path>
                        <path d="M43.4929968,86.0716224 L19.9288672,86.0716224 C17.1965292,86.0716224 14.9737932,83.8478278 14.9737932,81.1141888 L14.9737932,56.8833553 C14.9737932,55.9707468 14.2342759,55.2308774 13.3221018,55.2308774 C12.4099278,55.2308774 11.6704105,55.9707468 11.6704105,56.8833553 L11.6704105,81.1141888 C11.6704105,85.6701804 15.375044,89.3765781 19.9288672,89.3765781 L43.4929968,89.3765781 C44.4051709,89.3765781 45.1446882,88.6367087 45.1446882,87.7241002 C45.1446882,86.8114918 44.4051709,86.0716224 43.4929968,86.0716224 L43.4929968,86.0716224 Z" id="Shape"></path>
                        <ellipse id="Oval" cx="55.0548362" cy="63.2760209" rx="1.65169133" ry="1.65247785"></ellipse>
                        <ellipse id="Oval" cx="55.0548362" cy="69.8859323" rx="1.65169133" ry="1.65247785"></ellipse>
                        <path d="M63.3132928,24.1559212 C62.4008985,24.1559212 61.6616015,24.8957907 61.6616015,25.8083991 L61.6616015,42.0110546 L14.9737932,42.0110546 L14.9737932,25.8083991 C14.9737932,24.8957907 14.2342759,24.1559212 13.3221018,24.1559212 C12.4099278,24.1559212 11.6704105,24.8957907 11.6704105,25.8083991 L11.6704105,50.2734438 C11.6704105,51.1860523 12.4099278,51.9259217 13.3221018,51.9259217 C14.2342759,51.9259217 14.9737932,51.1860523 14.9737932,50.2734438 L14.9737932,45.3160103 L61.6616015,45.3160103 L61.6616015,81.1141888 C61.6616015,83.8478278 59.4386452,86.0716224 56.7065275,86.0716224 L50.0997622,86.0716224 C49.1875881,86.0716224 48.4480708,86.8114918 48.4480708,87.7241002 C48.4480708,88.6367087 49.1875881,89.3765781 50.0997622,89.3765781 L56.7065275,89.3765781 C61.2603506,89.3765781 64.9649841,85.6701804 64.9649841,81.1141888 L64.9649841,25.8083991 C64.9649841,24.8957907 64.2254669,24.1559212 63.3132928,24.1559212 L63.3132928,24.1559212 Z" id="Shape"></path>
                    </g>
                </g>
            </g>
        </g>
    </g>
</svg>