<?xml version="1.0" encoding="UTF-8" standalone="no"?>
<svg width="105px" height="102px" viewBox="0 0 105 102" version="1.1" xmlns="http://www.w3.org/2000/svg" xmlns:xlink="http://www.w3.org/1999/xlink">
    <!-- Generator: Sketch 3.7 (28169) - http://www.bohemiancoding.com/sketch -->
    <title>circle</title>
    <desc>Created with Sketch.</desc>
    <defs></defs>
    <g id="Page-1" stroke="none" stroke-width="1" fill="none" fill-rule="evenodd">
        <g id="Icons" transform="translate(-900.000000, -89.000000)" fill="#000000">
            <g id="social" transform="translate(497.000000, 89.000000)">
                <g id="circle" transform="translate(403.901639, 0.000000)">
                    <g id="Capa_1">
                        <path d="M97.0158781,25.9384921 C92.3663094,17.9855331 86.0594664,11.6891643 78.0936891,7.04796552 C70.1267262,2.40652999 61.4291777,0.0864040377 51.9948784,0.0864040377 C42.5617648,0.0864040377 33.8613709,2.40724016 25.8960678,7.04796552 C17.9295791,11.6889276 11.6229732,17.9855331 6.97340453,25.9384921 C2.32454722,33.8912144 0,42.5756488 0,51.9915584 C0,63.302202 3.30553792,73.4730225 9.91827365,82.5066238 C16.530298,91.5409353 25.0720546,97.7923266 35.5428321,101.261508 C36.7616603,101.487342 37.6639251,101.328501 38.2505751,100.789008 C38.8374622,100.248805 39.1305501,99.5722498 39.1305501,98.7621823 C39.1305501,98.6270133 39.1189309,97.4109652 39.0964039,95.1126178 C39.0731655,92.8142704 39.0622577,90.8092233 39.0622577,89.0984233 L37.5050506,89.3673411 C36.5122036,89.5489079 35.2597035,89.625843 33.7475503,89.6040645 C32.2361085,89.5829961 30.6670451,89.4248649 29.0424941,89.1308544 C27.4172318,88.8394479 25.9055529,88.1636027 24.5062717,87.1047389 C23.1077019,86.0458752 22.1148549,84.6598598 21.5279678,82.9488231 L20.8509728,81.3935504 C20.3997218,80.3581223 19.689292,79.2078833 18.7187348,77.9470946 C17.7481777,76.6851222 16.7667127,75.8296038 15.7738657,75.3791192 L15.2998506,75.040368 C14.9839987,74.8152441 14.6909108,74.5437224 14.4198756,74.2286435 C14.1490776,73.9135647 13.9463348,73.5982491 13.8109358,73.2824601 C13.6752997,72.9664344 13.7876974,72.7072223 14.1493148,72.5038769 C14.5109321,72.3005315 15.1644516,72.2018179 16.1127189,72.2018179 L17.4662347,72.4037429 C18.3689738,72.5843629 19.4856007,73.1238555 20.817538,74.0255349 C22.148764,74.9265041 23.2431009,76.0978114 24.1007861,77.5389834 C25.1393984,79.3868462 26.3907129,80.7948769 27.8582863,81.7637858 C29.3246742,82.7326946 30.8031555,83.2163205 32.2923074,83.2163205 C33.7814594,83.2163205 35.0676314,83.1036402 36.1512977,82.8794631 C37.2337783,82.6541025 38.2493894,82.3153513 39.1976567,81.8651034 C39.6038538,78.8449864 40.7098099,76.5248604 42.5145767,74.9030685 C39.9422327,74.6332038 37.6295418,74.2267497 35.5753183,73.6863102 C33.5222805,73.1451606 31.4007132,72.2669168 29.2120393,71.0492117 C27.0221797,69.8331636 25.2055566,68.3231051 23.7616957,66.5216401 C22.3175977,64.7192282 21.1324415,62.3529412 20.2078868,59.4249096 C19.2828578,56.4956943 18.8202248,53.1167046 18.8202248,49.2869936 C18.8202248,43.8340703 20.6034131,39.1938184 24.1690784,35.3636339 C22.4987621,31.2640582 22.656451,26.6683103 24.6426192,21.5768636 C25.9515553,21.170883 27.8926696,21.475546 30.4650136,22.4889589 C33.0378319,23.5028451 34.9215617,24.3713833 36.1181,25.0914958 C37.3146383,25.8113717 38.2733392,26.4214078 38.9956253,26.9161597 C43.193943,25.7450891 47.5264741,25.1594354 51.9944042,25.1594354 C56.4623343,25.1594354 60.7958139,25.7450891 64.9943687,26.9161597 L67.5669498,25.2948412 C69.3261884,24.2130153 71.4036502,23.2216178 73.7943557,22.3204118 C76.1864838,21.4196793 78.0156746,21.1715932 79.280031,21.5775738 C81.3103047,26.6692572 81.4912319,31.2647684 79.8204414,35.3643441 C83.3858695,39.1945286 85.1697692,43.8359641 85.1697692,49.2877038 C85.1697692,53.1174148 84.7054763,56.507057 83.7818701,59.458761 C82.8570783,62.4109384 81.6617256,64.7748582 80.1953378,66.5554915 C78.72729,68.3358882 76.8990478,69.8341105 74.7103738,71.0499218 C72.5212256,72.2666801 70.3989469,73.1449238 68.3459091,73.6860735 C66.2919228,74.2272232 63.9792319,74.633914 61.4068879,74.9042521 C63.7530136,76.9310778 64.9263135,80.1303944 64.9263135,84.5007816 L64.9263135,98.7602885 C64.9263135,99.570356 65.2084936,100.246675 65.773328,100.787114 C66.337451,101.326607 67.2283338,101.485448 68.447162,101.259377 C78.9193622,97.7906695 87.4611188,91.5390415 94.072906,82.50473 C100.683982,73.4711287 103.990705,63.3003082 103.990705,51.9896646 C103.988334,42.5749386 101.662601,33.8912144 97.0158781,25.9384921 L97.0158781,25.9384921 Z" id="Shape"></path>
                    </g>
                </g>
            </g>
        </g>
    </g>
</svg>