<?xml version="1.0" encoding="UTF-8" standalone="no"?>
<svg width="96px" height="91px" viewBox="0 0 96 91" version="1.1" xmlns="http://www.w3.org/2000/svg" xmlns:xlink="http://www.w3.org/1999/xlink">
    <!-- Generator: Sketch 3.7 (28169) - http://www.bohemiancoding.com/sketch -->
    <title>music-2</title>
    <desc>Created with Sketch.</desc>
    <defs></defs>
    <g id="Page-1" stroke="none" stroke-width="1" fill="none" fill-rule="evenodd">
        <g id="Icons" transform="translate(-278.000000, -332.000000)" fill="#000000">
            <g id="aesthetic" transform="translate(14.000000, 89.000000)">
                <g id="music-2" transform="translate(264.862579, 243.667774)">
                    <g id="Capa_1">
                        <path d="M95.1374207,47.8626632 C95.1374207,21.6210286 73.7981578,0.271604207 47.5687104,0.271604207 C21.3392629,0.271604207 0,21.6210286 0,47.8626632 C0,52.8303526 0.763523249,57.7213503 2.26511897,62.4074322 L2.26511897,72.3855524 C2.26511897,77.0740594 6.13484871,80.985645 11.2313664,81.8192516 L11.2313664,82.7589537 C11.2313664,86.7851223 14.9399079,90.0607418 19.4986265,90.0607418 C24.0570421,90.0607418 27.7655835,86.7851223 27.7655835,82.7589537 L27.7655835,51.9837114 C27.7655835,47.9575428 24.0570421,44.6819233 19.4986265,44.6819233 C17.368336,44.6819233 15.4240786,45.3973094 13.9567202,46.5704213 C14.6381344,28.6096838 29.4526063,14.2073857 47.5687104,14.2073857 C65.6848144,14.2073857 80.4995893,28.6099869 81.1803975,46.5710276 C79.7130391,45.3979157 77.7684787,44.6819233 75.6381883,44.6819233 C71.0794697,44.6819233 67.3709282,47.9575428 67.3709282,51.9837114 L67.3709282,82.7589537 C67.3709282,86.7851223 71.0794697,90.0607418 75.6381883,90.0607418 C80.1966039,90.0607418 83.9051454,86.7851223 83.9051454,82.7589537 L83.9051454,81.8192516 C89.0013601,80.9853419 92.8713928,77.0740594 92.8713928,72.3855524 L92.8713928,62.4101604 C94.3735945,57.7231691 95.1374207,52.831262 95.1374207,47.8626632 L95.1374207,47.8626632 Z M6.5069148,72.3858555 L6.5069148,62.3565064 C6.5069148,59.9632975 8.49571107,57.9326317 11.2313664,57.2478617 L11.2313664,77.4948034 C8.49571107,76.8103366 6.5069148,74.7787613 6.5069148,72.3858555 L6.5069148,72.3858555 Z M15.4728592,51.9837114 C15.4728592,50.3261982 17.3162225,48.925739 19.4983235,48.925739 C21.6801215,48.925739 23.5234847,50.3261982 23.5234847,51.9837114 L23.5234847,82.7589537 C23.5234847,84.4164669 21.6801215,85.8169261 19.4983235,85.8169261 C17.3162225,85.8169261 15.4728592,84.4164669 15.4728592,82.7589537 L15.4728592,51.9837114 L15.4728592,51.9837114 Z M47.5687104,9.96356995 C26.6811987,9.96356995 9.6876557,26.9652052 9.6876557,47.8626632 C9.6876557,49.6417314 9.81400062,51.419587 10.0597218,53.1728892 C8.08516583,53.698213 6.34602954,54.6973284 5.01349968,56.0174583 C4.50448418,53.342945 4.24179583,50.6165965 4.24179583,47.8626632 C4.24179583,23.9608867 23.6780073,4.51541994 47.5687104,4.51541994 C71.4594134,4.51541994 90.8956249,23.9608867 90.8956249,47.8626632 C90.8956249,50.6165965 90.6329365,53.342945 90.123921,56.0180645 C88.7916942,54.6979347 87.0522549,53.6985161 85.0776989,53.1728892 C85.3231171,51.4183745 85.449462,49.6402157 85.449462,47.8623601 C85.449462,26.9652052 68.456222,9.96356995 47.5687104,9.96356995 L47.5687104,9.96356995 Z M79.6636525,82.7592568 C79.6636525,84.41677 77.8202893,85.8172292 75.6384913,85.8172292 C73.4563903,85.8172292 71.613027,84.41677 71.613027,82.7592568 L71.613027,51.9837114 C71.613027,50.3261982 73.4563903,48.925739 75.6384913,48.925739 C77.8202893,48.925739 79.6636525,50.3261982 79.6636525,51.9837114 L79.6636525,82.7592568 L79.6636525,82.7592568 Z M88.6298999,72.3858555 C88.6298999,74.7790645 86.6408007,76.8103366 83.9054484,77.4951065 L83.9054484,57.2481648 C86.6408007,57.9329348 88.6298999,59.9639038 88.6298999,62.3568096 L88.6298999,72.3858555 L88.6298999,72.3858555 Z" id="Shape"></path>
                    </g>
                </g>
            </g>
        </g>
    </g>
</svg>