<?xml version="1.0" encoding="UTF-8" standalone="no"?>
<svg width="102px" height="101px" viewBox="0 0 102 101" version="1.1" xmlns="http://www.w3.org/2000/svg" xmlns:xlink="http://www.w3.org/1999/xlink">
    <!-- Generator: Sketch 3.7 (28169) - http://www.bohemiancoding.com/sketch -->
    <title>social-media</title>
    <desc>Created with Sketch.</desc>
    <defs></defs>
    <g id="Page-1" stroke="none" stroke-width="1" fill="none" fill-rule="evenodd">
        <g id="Icons" transform="translate(-628.000000, -91.000000)" fill="#010002">
            <g id="social" transform="translate(497.000000, 89.000000)">
                <g id="social-media" transform="translate(131.163934, 2.078431)">
                    <g id="Capa_1">
                        <g id="Group">
                            <path d="M75.2370902,100.865625 L25.8001281,100.865625 C11.5744365,100.865625 0,89.307598 0,75.1060662 L0,25.7530637 C0,11.5515319 11.5744365,0 25.8001281,0 L75.2370902,0 C89.4627818,0 101.037218,11.5515319 101.037218,25.7530637 L101.037218,75.1060662 C101.037218,89.307598 89.4627818,100.865625 75.2370902,100.865625 L75.2370902,100.865625 Z M25.8001281,5.76115196 C14.7559426,5.76115196 5.77420594,14.7276348 5.77420594,25.7498162 L5.77420594,75.1028186 C5.77420594,86.1282475 14.7591957,95.0947304 25.8001281,95.0947304 L75.2370902,95.0947304 C86.2812756,95.0947304 95.2597592,86.125 95.2597592,75.1028186 L95.2597592,25.7530637 C95.2597592,14.7276348 86.2780225,5.76439951 75.2370902,5.76439951 L25.8001281,5.76439951 L25.8001281,5.76115196 Z" id="Shape"></path>
                            <path d="M98.1484887,37.8469363 L62.5631148,37.8469363 C60.9691086,37.8469363 59.6743852,36.5544118 59.6743852,34.9631127 C59.6743852,33.3718137 60.9658555,32.0792892 62.5631148,32.0792892 L98.1452357,32.0792892 C99.7392418,32.0792892 101.033965,33.3685662 101.033965,34.9631127 C101.037218,36.5544118 99.7424949,37.8469363 98.1484887,37.8469363 L98.1484887,37.8469363 Z" id="Shape"></path>
                            <path d="M37.7258965,37.8469363 L2.88547643,37.8469363 C1.29147029,37.8469363 0,36.5544118 0,34.9663603 C0,33.3750613 1.29147029,32.0825368 2.88547643,32.0825368 L37.7258965,32.0825368 C39.3199027,32.0825368 40.614626,33.3718137 40.614626,34.9663603 C40.611373,36.5544118 39.3199027,37.8469363 37.7258965,37.8469363 L37.7258965,37.8469363 Z" id="Shape"></path>
                            <path d="M50.5169826,72.9074755 C38.1032531,72.9074755 27.9992059,62.8270833 27.9992059,50.4311887 C27.9992059,38.0352941 38.1,27.9516544 50.5169826,27.9516544 C62.9307121,27.9516544 73.0315061,38.0320466 73.0315061,50.4311887 C73.0315061,62.8270833 62.9339652,72.9074755 50.5169826,72.9074755 L50.5169826,72.9074755 Z M50.5169826,33.7160539 C41.2847592,33.7160539 33.7701588,41.2178922 33.7701588,50.4344363 C33.7701588,59.6509804 41.2847592,67.1463235 50.5169826,67.1463235 C59.7492059,67.1463235 67.2573002,59.6509804 67.2573002,50.4344363 C67.2573002,41.2178922 59.7492059,33.7160539 50.5169826,33.7160539 L50.5169826,33.7160539 Z" id="Shape"></path>
                            <path d="M83.1388064,30.4003064 L70.1492828,30.4003064 C68.5552766,30.4003064 67.2605533,29.1110294 67.2605533,27.5197304 L67.2605533,14.5490196 C67.2605533,12.9577206 68.5552766,11.6684436 70.1492828,11.6684436 L83.1388064,11.6684436 C84.7328125,11.6684436 86.0242828,12.9577206 86.0242828,14.5490196 L86.0242828,27.5197304 C86.0210297,29.114277 84.7328125,30.4003064 83.1388064,30.4003064 L83.1388064,30.4003064 Z M73.0315061,24.6359069 L80.2500768,24.6359069 L80.2500768,17.4328431 L73.0315061,17.4328431 L73.0315061,24.6359069 L73.0315061,24.6359069 Z" id="Shape"></path>
                        </g>
                    </g>
                </g>
            </g>
        </g>
    </g>
</svg>