<?xml version="1.0" encoding="UTF-8" standalone="no"?>
<svg width="96px" height="96px" viewBox="0 0 96 96" version="1.1" xmlns="http://www.w3.org/2000/svg" xmlns:xlink="http://www.w3.org/1999/xlink">
    <!-- Generator: Sketch 3.7 (28169) - http://www.bohemiancoding.com/sketch -->
    <title>music</title>
    <desc>Created with Sketch.</desc>
    <defs></defs>
    <g id="Page-1" stroke="none" stroke-width="1" fill="none" fill-rule="evenodd">
        <g id="Icons" transform="translate(-146.000000, -208.000000)" fill="#000000">
            <g id="aesthetic" transform="translate(14.000000, 89.000000)">
                <g id="music" transform="translate(132.431290, 119.627103)">
                    <g id="Capa_1">
                        <path d="M93.2134633,82.9126405 C93.2058887,82.9050622 93.1977081,82.8971808 93.1901334,82.8896026 L56.6479713,47.4576819 L84.8225852,18.3714783 C87.2528312,18.1204869 89.6991355,16.9034212 91.6549063,14.9470221 C93.4937248,13.1076311 94.6929411,10.8153644 95.0316788,8.49278467 C95.3985941,5.97650507 94.694759,3.61997482 93.1019647,2.02915018 C91.7951886,0.720539285 89.9654597,0 87.9493947,0 C85.222526,0 82.3932481,1.26617274 80.1869083,3.47356318 C78.2156852,5.4460281 77.0001077,7.90471306 76.7607492,10.3497572 L47.5687104,38.6547956 L18.3769745,10.3500603 C18.137616,7.90501619 16.9220385,5.4460281 14.9508154,3.47356318 C13.1126028,1.63477845 10.8220331,0.435294242 8.50025585,0.0966983727 C5.983356,-0.269179169 3.62825036,0.434081723 2.03757692,2.02702827 C0.443267664,3.61967169 -0.260870443,5.97650507 0.106044896,8.49278467 C0.444782591,10.8153644 1.64369588,13.107328 3.48251437,14.9470221 C5.44373897,16.9088775 7.88489247,18.1229119 10.3157445,18.3720846 L38.4900553,47.4576819 L1.94759026,82.8892995 C1.94001562,82.8968777 1.93183501,82.9047591 1.92426038,82.9123373 C0.603243964,84.2336797 -0.074231427,86.024873 0.0172701687,87.9552029 C0.105135939,89.8094473 0.899866686,91.5776028 2.25451448,92.9331988 C3.68218176,94.3627584 5.61947052,95.1827243 7.56918167,95.1827243 L7.56978764,95.1827243 C9.36800609,95.1827243 11.0389707,94.5028043 12.2733332,93.267854 C12.2812109,93.2599726 12.2890885,93.2520912 12.2966631,93.2439067 L47.5690133,56.8304521 L82.8407576,93.2439067 C82.8483322,93.2517881 82.8562099,93.2599726 82.8637845,93.267854 C84.1057217,94.5103826 85.762143,95.1830274 87.5597555,95.1830274 C87.6742839,95.1830274 87.7897214,95.1802992 87.9054618,95.1748429 C89.7597326,95.0866321 91.5273495,94.2906136 92.8823003,92.9341082 C94.237857,91.5776028 95.0328908,89.8094473 95.1204535,87.9552029 C95.2119551,86.024873 94.5344797,84.2339828 93.2134633,82.9126405 L93.2134633,82.9126405 Z M13.1477492,15.1977104 C12.7668965,14.5693225 12.0818465,14.1755571 11.3340785,14.1755571 C11.3031739,14.1758602 11.2743903,14.1764664 11.2443948,14.1761633 C9.65675119,14.1761633 7.88095366,13.3458911 6.48176701,11.9460382 C5.30163881,10.7656511 4.50781702,9.28395317 4.30299888,7.88046268 C4.20240772,7.18963011 4.16332261,5.90041951 5.0359206,5.02892164 C5.90700368,4.15681751 7.19590364,4.19592124 7.88792233,4.2965603 C9.29104779,4.50117284 10.7720405,5.29506951 11.9506538,6.47485029 C13.3680196,7.89258787 14.2006235,9.69681582 14.1782026,11.3012813 C14.168507,11.9875669 14.4966402,12.6177736 15.0311065,13.0163891 L44.5206771,41.610007 L41.5356648,44.5045924 L13.1477492,15.1977104 L13.1477492,15.1977104 Z M9.26438507,90.2765701 C8.71083072,90.8237192 8.03790011,90.9389085 7.56948466,90.9389085 C6.73657775,90.9389085 5.89336933,90.5724247 5.25467607,89.9334273 C4.64719032,89.3253492 4.29178842,88.5517622 4.25421823,87.7545311 C4.22028386,87.0382356 4.45418861,86.3883255 4.91381748,85.9233246 L80.0417783,13.0782276 C80.6177536,12.6814308 80.9692167,12.018183 80.9592182,11.3009782 C80.9367972,9.69681582 81.7690982,7.89228474 83.186464,6.47454716 C84.5823178,5.07772552 86.3629631,4.24381573 87.9493947,4.24381573 C88.5735447,4.24381573 89.4537173,4.37992096 90.103015,5.03043729 C90.9737951,5.90041951 90.935013,7.18932698 90.8341189,7.88015955 C90.6296037,9.28365004 89.8354789,10.765348 88.6559567,11.945735 C87.2601029,13.3422535 85.4788516,14.1758602 83.8909051,14.1758602 L83.8321259,14.1755571 C83.8227333,14.1752539 83.8130378,14.1752539 83.8033423,14.1752539 C83.0549683,14.1752539 82.3696153,14.5693225 81.9893686,15.1983167 L9.26438507,90.2765701 L9.26438507,90.2765701 Z M90.8835055,87.7545311 C90.8459353,88.5517622 90.4905334,89.3253492 89.8821387,89.9340336 C89.2746529,90.5421118 88.5011311,90.897986 87.7039765,90.9358772 C86.9901429,90.970434 86.3381183,90.7361148 85.8733386,90.2768733 L50.5225152,53.7812705 L53.6962874,50.5050448 L90.2242092,85.9236277 C90.6832321,86.3886287 90.9174398,87.0385387 90.8835055,87.7545311 L90.8835055,87.7545311 Z" id="Shape"></path>
                    </g>
                </g>
            </g>
        </g>
    </g>
</svg>