<?xml version="1.0" encoding="UTF-8" standalone="no"?>
<svg width="115px" height="115px" viewBox="0 0 115 115" version="1.1" xmlns="http://www.w3.org/2000/svg" xmlns:xlink="http://www.w3.org/1999/xlink">
    <!-- Generator: Sketch 3.7 (28169) - http://www.bohemiancoding.com/sketch -->
    <title>signs</title>
    <desc>Created with Sketch.</desc>
    <defs></defs>
    <g id="Page-1" stroke="none" stroke-width="1" fill="none" fill-rule="evenodd">
        <g id="Icons" transform="translate(-669.000000, -355.000000)" fill="#000000">
            <g id="post-type" transform="translate(497.000000, 350.000000)">
                <g id="signs" transform="translate(171.961326, 5.039648)">
                    <g id="Layer_1">
                        <path d="M104.924232,66.729258 L114.640884,57.2687225 L104.924232,47.8081869 L110.277575,35.3529476 L97.676867,30.3277137 L97.8520485,16.7736871 L84.2857812,16.9487106 L79.2560091,4.35937237 L66.7895214,9.70788497 L57.320442,0 L47.8513626,9.70788497 L35.3848749,4.35937237 L30.3551027,16.9487106 L16.7888354,16.7736871 L16.964017,30.3277137 L4.36330933,35.3529476 L9.71665218,47.8081869 L0,57.2687225 L9.71665218,66.729258 L4.36330933,79.1844974 L16.964017,84.2097312 L16.7888354,97.7637579 L30.3551027,97.5887343 L35.3848749,110.178073 L47.8513626,104.82956 L57.320442,114.537445 L66.7895214,104.82956 L79.2560091,110.178073 L84.2857812,97.5887343 L97.8520485,97.7637579 L97.676867,84.2097312 L110.277575,79.1844974 L104.924232,66.729258 L104.924232,66.729258 Z M44.6032901,65.6428253 L41.5427649,65.6428253 L33.9610094,56.2378855 L33.9610094,65.6428253 L30.1585387,65.6428253 L30.1585387,49.195763 L33.1263207,49.195763 L40.8008194,58.8555165 L40.8008194,49.195763 L44.6032901,49.195763 L44.6032901,65.6428253 L44.6032901,65.6428253 Z M60.4853032,65.6428253 L48.9155907,65.6428253 L48.9155907,49.195763 L60.2766311,49.195763 L60.2766311,52.5315052 L52.7180613,52.5315052 L52.7180613,55.7282582 L59.2100844,55.7282582 L59.2100844,58.8091868 L52.7180613,58.8091868 L52.7180613,62.3070831 L60.4853032,62.3070831 L60.4853032,65.6428253 L60.4853032,65.6428253 Z M80.4019027,65.6428253 L77.2254485,65.6428253 L74.6054535,59.2029897 L72.0086442,65.6428253 L68.8090043,65.6428253 L62.2474238,49.195763 L66.3747532,49.195763 L70.5247532,61.2878285 L72.147759,56.8633371 L69.4352784,49.2189279 L72.9363337,49.2189279 L74.6054535,54.4773548 L76.2748308,49.2189279 L79.7990719,49.2189279 L77.0399621,56.8633371 L78.7093395,61.2878285 L82.8364113,49.195763 L86.9866689,49.195763 L80.4019027,65.6428253 L80.4019027,65.6428253 Z" id="Shape"></path>
                    </g>
                </g>
            </g>
        </g>
    </g>
</svg>