<?xml version="1.0" encoding="UTF-8" standalone="no"?>
<svg width="115px" height="113px" viewBox="0 0 115 113" version="1.1" xmlns="http://www.w3.org/2000/svg" xmlns:xlink="http://www.w3.org/1999/xlink">
    <!-- Generator: Sketch 3.7 (28169) - http://www.bohemiancoding.com/sketch -->
    <title>shapes</title>
    <desc>Created with Sketch.</desc>
    <defs></defs>
    <g id="Page-1" stroke="none" stroke-width="1" fill="none" fill-rule="evenodd">
        <g id="Icons" transform="translate(-797.000000, -355.000000)" fill="#000000">
            <g id="post-type" transform="translate(497.000000, 350.000000)">
                <g id="shapes" transform="translate(300.359116, 5.039648)">
                    <g id="Capa_1">
                        <path d="M113.718333,61.5204346 L105.307657,48.1862581 C104.641319,47.1290756 104.416712,45.8525343 104.680779,44.6320472 L108.019765,29.2279754 C108.540418,26.8273602 107.150327,24.4245029 104.80982,23.6741238 L89.7881243,18.8611221 C88.5975796,18.4793929 87.6039629,17.6466141 87.0212207,16.5417855 L79.6686818,2.59792599 C78.523395,0.424143556 75.913024,-0.5244806 73.6368507,0.403777192 L59.0320136,6.36458236 C57.8747578,6.83581146 56.577988,6.83581146 55.4207322,6.36458236 L40.8183262,0.404898276 C38.542153,-0.523359516 35.9317819,0.425264641 34.7853731,2.59904708 L27.4328342,16.5415987 C26.8500919,17.6464273 25.8564753,18.479206 24.6659306,18.8609352 L9.64442151,23.6739369 C7.30260561,24.424316 5.91382387,26.8273602 6.43447676,29.2277885 L9.77215352,44.6318604 C10.0373424,45.8523474 9.81161393,47.1290756 9.14527548,48.1860712 L0.735721432,61.5204346 C-0.575448613,63.5987381 -0.0918249169,66.3310073 1.85108559,67.8368104 L14.3183285,77.4925225 C15.3070827,78.2584099 15.9554676,79.3800548 16.1250913,80.6184792 L18.2615635,96.2338754 C18.5935171,98.6677494 20.7226956,100.451581 23.1780303,100.356102 L38.9412454,99.7464194 C40.1903261,99.6974653 41.4083621,100.141415 42.3363361,100.979986 L54.0177372,111.569935 C55.8389003,113.219984 58.6177728,113.219984 60.4376267,111.569935 L72.120337,100.979986 C73.0458798,100.140107 74.2650379,99.6974653 75.5154277,99.7464194 L91.2773336,100.356102 C93.7349125,100.451581 95.8618469,98.6666283 96.1949226,96.2338754 L98.3313948,80.6184792 C98.5010184,79.3800548 99.1494034,78.2585968 100.137036,77.4925225 L112.604278,67.8368104 C114.547002,66.3310073 115.029503,63.5987381 113.718333,61.5204346 L113.718333,61.5204346 Z M43.9925509,75.4713944 L30.0720057,65.757199 L35.79339,79.0054258 L31.9803182,80.6494959 L23.2055217,60.3356354 L27.198877,58.6127157 L41.3821798,68.5905527 L35.5210945,55.0250591 L39.3341663,53.3796811 L48.111394,73.6946626 L43.9925509,75.4713944 L43.9925509,75.4713944 Z M52.4520383,71.8228256 L43.6772417,51.5089651 L58.7537336,45.0064894 L60.2369584,48.4437338 L49.2649095,53.1743358 L51.2102512,57.6771708 L61.4192744,53.2746728 L62.8976368,56.6977169 L52.6886136,61.0990938 L55.0769966,66.6279078 L66.4359819,61.7302642 L67.9143444,65.1533083 L52.4520383,71.8228256 L52.4520383,71.8228256 Z M86.8218615,57.0033992 L76.2115017,43.5606643 L78.7347233,60.4884765 L74.2828044,62.4081465 L60.6547525,44.1882847 L64.8558827,42.374744 L73.9495417,55.0073086 L71.6387705,39.4517035 L76.5228836,37.3459336 L86.2161163,49.9988645 L83.2068398,34.463439 L87.3398962,32.680915 L91.176719,55.125583 L86.8218615,57.0033992 L86.8218615,57.0033992 Z" id="Shape"></path>
                    </g>
                </g>
            </g>
        </g>
    </g>
</svg>