<?xml version="1.0" encoding="UTF-8" standalone="no"?>
<svg width="95px" height="211px" viewBox="0 0 95 211" version="1.1" xmlns="http://www.w3.org/2000/svg" xmlns:xlink="http://www.w3.org/1999/xlink">
    <!-- Generator: Sketch 3.7 (28169) - http://www.bohemiancoding.com/sketch -->
    <title>pen</title>
    <desc>Created with Sketch.</desc>
    <defs></defs>
    <g id="Page-1" stroke="none" stroke-width="1" fill="none" fill-rule="evenodd">
        <g id="Icons" transform="translate(-279.000000, -89.000000)" fill="#000000">
            <g id="aesthetic" transform="translate(14.000000, 89.000000)">
                <g id="pen" transform="translate(264.862579, 0.130006)">
                    <g id="Capa_1">
                        <g id="Group">
                            <path d="M92.4109215,90.8725719 L88.2225545,90.8725719 L95.0687361,4.61752289 C95.1174651,4.0037104 94.920693,3.39593388 94.5211159,2.92698485 C94.1215387,2.45803582 93.5525705,2.16784458 92.9395143,2.11909246 L66.3776105,0.00742889555 C65.0985923,-0.0951827243 63.9820038,0.859430354 63.8803692,2.13766469 L56.8309184,90.8725719 L55.184809,90.8725719 L55.184809,30.1794239 C55.184809,29.9133765 55.1388645,29.6496508 55.0497602,29.3993898 L47.9947404,9.6176339 C47.66524,8.69320071 46.7904398,8.07613808 45.8098283,8.07613808 L45.8098283,8.07613808 C44.8292167,8.07613808 43.9544165,8.69320071 43.6244521,9.6171696 L36.5647914,29.3989255 C36.4756871,29.6496508 36.4297427,29.9133765 36.4297427,30.1794239 L36.4297427,90.8730362 L33.4749136,90.8730362 L26.8505646,12.83481 C26.6398701,10.3373082 25.4689837,8.07149502 23.554169,6.45478162 C21.6398185,4.83853253 19.2089414,4.0663917 16.7130924,4.27532939 C11.9009952,4.68484726 8.131697,8.78884774 8.131697,13.6180942 C8.131697,13.9356794 8.14237096,14.1984766 8.16418295,14.4213435 L9.0617233,24.9847687 L7.81101428,25.0910947 C3.72242562,25.4383956 0.678492239,29.0483745 1.0256278,33.1389101 L4.68168927,76.2223256 C4.7981746,77.5957426 3.77625948,78.8075812 2.40349611,78.9245863 C1.12679833,79.0327696 0.179600887,80.1568544 0.287732687,81.4341601 C0.390295467,82.6446058 1.40432115,83.5592886 2.59701954,83.5592886 C2.66291961,83.5592886 2.72928376,83.5565027 2.796112,83.5504667 C4.6960759,83.3888883 6.41968752,82.4969565 7.64951271,81.0385714 C8.87887382,79.5801864 9.46733357,77.7299271 9.305832,75.8290584 L5.64977054,32.745643 C5.51936266,31.2064687 6.66518847,29.8474451 8.20363018,29.7165108 L9.45433919,29.6101848 L14.6493065,90.8716433 L10.2284329,90.8716433 C9.58753158,90.8716433 8.97493941,91.136762 8.53637911,91.6047824 C8.0978188,92.0728029 7.87180942,92.7005445 7.91264889,93.3408225 L14.7741453,201.246923 C15.1059661,206.462008 19.4572268,210.547436 24.6805033,210.547436 L77.9588511,210.547436 C83.1821276,210.547436 87.5333883,206.462008 87.8652091,201.246923 L94.7267055,93.3408225 C94.7670809,92.7010088 94.5415356,92.0728029 94.1029753,91.6047824 C93.664415,91.1381549 93.0513587,90.8725719 92.4109215,90.8725719 L92.4109215,90.8725719 Z M68.3225906,4.81996029 L90.2584953,6.56389353 L89.8802661,11.3290657 L81.2696334,10.6446787 C79.9901511,10.5416028 78.8744908,11.4966802 78.7728562,12.7749145 C78.6712216,14.0531489 79.6249162,15.1716619 80.9025422,15.2728806 L89.5131749,15.9572676 L89.1600062,20.4043902 L84.8686124,20.0635897 C83.5923787,19.9637639 82.4734698,20.9160554 82.3718352,22.1938255 C82.2702006,23.4720598 83.2238952,24.5905729 84.5015212,24.6917916 L88.792915,25.0325922 L88.4402104,29.4797148 L84.1483525,29.1389142 C82.8707266,29.0386241 81.7532099,29.99138 81.6515753,31.26915 C81.5499407,32.5473843 82.5036353,33.6658974 83.7812613,33.7671161 L88.0726551,34.1079167 L87.7194864,38.5555036 L83.4280926,38.2142387 C82.1481462,38.1134843 81.0324859,39.0662402 80.9308513,40.3444745 C80.8292167,41.6227089 81.7829114,42.7412219 83.0600732,42.8424406 L87.3523952,43.1837055 L86.9992265,47.6308281 L78.3872016,46.9464411 C77.1100397,46.8456867 75.992059,47.7984426 75.8904244,49.0766769 C75.7887898,50.3549113 76.7424844,51.4734244 78.0201103,51.5746431 L86.6316712,52.2590301 L86.2789666,56.706617 L81.9861806,56.3653521 C80.7076265,56.2636691 79.591038,57.2178178 79.4894034,58.4955879 C79.3877688,59.7738222 80.3414634,60.8923353 81.6190894,60.993554 L85.9114113,61.3343546 L85.5582427,65.7819415 L81.2654566,65.4406766 C79.9850462,65.3385293 78.870314,66.2931424 78.7686794,67.5709124 C78.6670448,68.8491467 79.6207394,69.9676598 80.8983654,70.0688785 L85.1911514,70.4101434 L84.8384469,74.857266 L80.5456608,74.5160011 C79.2680349,74.4133895 78.1500541,75.3680026 78.0484195,76.6462369 C77.9467849,77.9244713 78.9004796,79.0429844 80.1776414,79.1442031 L84.4708916,79.485468 L84.118187,83.9330549 L75.5047698,83.2482035 C74.2257516,83.1451276 73.1096272,84.100205 73.0079926,85.3784393 C72.906358,86.6566737 73.8600526,87.7751868 75.1376785,87.8764055 L83.7506317,88.5607925 L83.5673181,90.8697861 L61.4866189,90.8697861 L68.3225906,4.81996029 L68.3225906,4.81996029 Z M45.808436,17.3032907 L49.5730934,27.8583583 L42.0414583,27.8583583 L45.808436,17.3032907 L45.808436,17.3032907 Z M41.0696643,32.5018823 L50.5439592,32.5018823 L50.5439592,90.8730362 L41.0696643,90.8730362 L41.0696643,32.5018823 L41.0696643,32.5018823 Z M17.1047801,8.9021384 C18.3647708,8.79581233 19.5936678,9.18675796 20.561285,10.0034722 C21.5284381,10.8201864 22.1196824,11.9642363 22.2259578,13.2257556 L22.5517455,17.065566 L13.1136493,17.8674224 L12.7860053,14.006254 C12.7739391,13.8771769 12.7725468,13.7448497 12.7725468,13.6185585 C12.7725468,11.1804878 14.6762234,9.10875456 17.1047801,8.9021384 L17.1047801,8.9021384 Z M13.5062651,22.4933028 L22.9448255,21.6914464 L23.1230341,23.7905737 L13.6844738,24.5924301 L13.5062651,22.4933028 L13.5062651,22.4933028 Z M14.0766256,29.2187748 L23.5151859,28.4169184 L28.8168927,90.8725719 L19.3063992,90.8725719 L14.0766256,29.2187748 L14.0766256,29.2187748 Z M83.2331769,200.953018 C83.0568246,203.730032 80.7401124,205.905305 77.9588511,205.905305 L24.6805033,205.905305 C21.899242,205.905305 19.5825298,203.730032 19.4057134,200.953018 L12.7010777,95.5156316 L89.9382767,95.5156316 L83.2331769,200.953018 L83.2331769,200.953018 Z" id="Shape"></path>
                            <path d="M77.9356469,199.336768 C77.9857681,199.340019 78.0358892,199.341412 78.0850822,199.341412 C79.2991286,199.341412 80.3201155,198.396549 80.3985459,197.167067 L81.7782705,175.469584 C81.8594854,174.189957 80.8886196,173.086766 79.6096014,173.005513 C78.3226938,172.926581 77.2279173,173.895587 77.1462383,175.17475 L75.7665137,196.872232 C75.686227,198.152324 76.6566287,199.255515 77.9356469,199.336768 L77.9356469,199.336768 Z" id="Shape"></path>
                            <path d="M79.924251,168.058797 C79.9743722,168.062047 80.0244934,168.06344 80.0736864,168.06344 C81.2877327,168.06344 82.3087196,167.118577 82.38715,165.889095 L85.5457124,116.221356 C85.6269272,114.941729 84.6560615,113.838538 83.3770433,113.757285 C82.0896715,113.674174 80.9953592,114.647359 80.9136802,115.926522 L77.7551178,165.594261 C77.6748311,166.874352 78.6452328,167.977543 79.924251,168.058797 L79.924251,168.058797 Z" id="Shape"></path>
                            <path d="M83.6796267,109.00697 C83.7297478,109.01022 83.779869,109.011613 83.829062,109.011613 C85.0431083,109.011613 86.0640953,108.066751 86.1425257,106.837268 L86.510081,101.055266 C86.5912958,99.7756389 85.6204301,98.6724479 84.3414118,98.5911944 C83.0517197,98.5099408 81.9597277,99.4812689 81.8780488,100.760432 L81.5104935,106.542434 C81.4297427,107.822526 82.4006085,108.925717 83.6796267,109.00697 L83.6796267,109.00697 Z" id="Shape"></path>
                        </g>
                    </g>
                </g>
            </g>
        </g>
    </g>
</svg>