<?xml version="1.0" encoding="UTF-8" standalone="no"?>
<svg width="115px" height="139px" viewBox="0 0 115 139" version="1.1" xmlns="http://www.w3.org/2000/svg" xmlns:xlink="http://www.w3.org/1999/xlink">
    <!-- Generator: Sketch 3.7 (28169) - http://www.bohemiancoding.com/sketch -->
    <title>polaroid</title>
    <desc>Created with Sketch.</desc>
    <defs></defs>
    <g id="Page-1" stroke="none" stroke-width="1" fill="none" fill-rule="evenodd">
        <g id="Icons" transform="translate(-497.000000, -514.000000)" fill="#000000">
            <g id="post-type" transform="translate(497.000000, 350.000000)">
                <g id="polaroid" transform="translate(0.000000, 164.017621)">
                    <g id="Group">
                        <path d="M112.436252,0 L2.20463238,0 C0.986793455,0 0,0.986196769 0,2.20264317 L0,135.829662 C0,137.046109 0.986793455,138.032305 2.20463238,138.032305 L112.436252,138.032305 C113.654091,138.032305 114.640884,137.046109 114.640884,135.829662 L114.640884,2.20264317 C114.640884,0.986196769 113.654091,0 112.436252,0 L112.436252,0 Z M110.231619,133.627019 L4.40926477,133.627019 L4.40926477,4.40528634 L110.231619,4.40528634 L110.231619,133.627019 L110.231619,133.627019 Z" id="Shape"></path>
                        <path d="M62.8775854,56.8232012 C61.7297068,56.4161527 60.4695389,57.0143906 60.0618289,58.1609398 C59.6505914,59.3168869 58.5488632,60.0936858 57.320442,60.0936858 C56.0920208,60.0936858 54.9902925,59.3168869 54.5790551,58.1609398 C54.1713451,57.0143906 52.9108833,56.4164464 51.7632986,56.8232012 C50.6163019,57.230837 50.0169358,58.4901615 50.4246458,59.636417 C51.4596473,62.5447871 54.2307232,64.4986784 57.320442,64.4986784 C60.4101608,64.4986784 63.1812367,62.5447871 64.2162381,59.636417 C64.6242421,58.4904552 64.024876,57.230837 62.8775854,56.8232012 L62.8775854,56.8232012 Z" id="Shape"></path>
                        <path d="M51.766826,48.7585903 L51.766826,47.2901615 C51.766826,46.0737151 50.7800326,45.0875184 49.5621937,45.0875184 L44.4180514,45.0875184 C43.2002125,45.0875184 42.213419,46.0737151 42.213419,47.2901615 C42.213419,48.5066079 43.2002125,49.4928047 44.4180514,49.4928047 L47.4830783,49.4928047 C47.7855539,50.3483113 48.6024437,50.9612335 49.5621937,50.9612335 C50.7800326,50.9612335 51.766826,49.9753304 51.766826,48.7585903 L51.766826,48.7585903 Z" id="Shape"></path>
                        <path d="M70.2228326,45.0875184 L65.0786903,45.0875184 C63.8608514,45.0875184 62.8740579,46.0737151 62.8740579,47.2901615 L62.8740579,48.7585903 C62.8740579,49.9750367 63.8608514,50.9612335 65.0786903,50.9612335 C66.0387342,50.9612335 66.8553301,50.3483113 67.1578056,49.4928047 L70.2228326,49.4928047 C71.4406715,49.4928047 72.4274649,48.5066079 72.4274649,47.2901615 C72.4274649,46.0737151 71.4403775,45.0875184 70.2228326,45.0875184 L70.2228326,45.0875184 Z" id="Shape"></path>
                        <path d="M57.320442,84.1409692 C47.3516822,84.1409692 37.7985692,87.1753304 29.6934587,92.9157122 C28.6999044,93.6193833 28.4656254,94.9941263 29.169932,95.9864905 C29.8739446,96.9785609 31.2496352,97.2132159 32.2431895,96.5095448 C39.599019,91.2998532 48.270573,88.5462555 57.320442,88.5462555 C66.3706049,88.5462555 75.0424529,91.3001468 82.3982823,96.5101322 C82.7854158,96.7844347 83.2304576,96.9160059 83.671384,96.9160059 C84.3621689,96.9160059 85.0420775,96.5926579 85.4718338,95.9870778 C86.1761404,94.9947137 85.9418615,93.6196769 84.9486011,92.9162996 C76.8429027,87.1753304 67.2892017,84.1409692 57.320442,84.1409692 L57.320442,84.1409692 Z" id="Shape"></path>
                        <path d="M94.8447549,51.2002937 C95.2024933,48.4951542 94.4540941,45.9682819 92.7380082,44.0845815 C90.6741784,41.8193833 87.5012714,40.9004405 84.3072,41.49721 C83.2383942,36.8002937 80.9629197,32.4954479 77.6453889,28.9098385 L72.4671483,18.8187959 C71.911581,17.7359765 70.5835104,17.3089574 69.4994192,17.8637298 C68.4159159,18.4187959 67.9879232,19.7462555 68.5434906,20.8287812 L72.2108231,27.9750367 L42.4300609,27.9750367 L46.0973934,20.8281938 C46.6529608,19.7456681 46.2249681,18.4182085 45.1414648,17.8634361 C44.0579615,17.3086637 42.729303,17.7356828 42.1737357,18.8185022 L36.9954951,28.9098385 C33.6779643,32.4954479 31.4024897,36.8002937 30.33339,41.49721 C27.1396126,40.8992658 23.9669996,41.8190896 21.9025818,44.0845815 C20.186496,45.9679883 19.4380968,48.4951542 19.7958351,51.2002937 C20.1347606,53.7662261 21.4446062,56.2005874 23.4840381,58.0552129 C25.5343462,59.9198238 28.1252302,60.9873715 30.6855433,61.0790015 C33.9777943,72.6763583 44.6717311,81.1967695 57.320148,81.1967695 C69.968565,81.1967695 80.6627957,72.676652 83.9547528,61.0790015 C86.5147719,60.9873715 89.1059499,59.9198238 91.156258,58.0552129 C93.1959839,56.2005874 94.5058294,53.7662261 94.8447549,51.2002937 L94.8447549,51.2002937 Z M90.4734098,50.6237885 C90.2705837,52.1597651 89.458985,53.6419971 88.1885288,54.7976505 C87.1955624,55.7007342 86.022404,56.3036711 84.8354299,56.5535977 C84.943016,55.564464 85.0000425,54.5600587 85.0000425,53.5427313 C85.0000425,52.3262849 84.013249,51.3400881 82.7954101,51.3400881 C81.5775712,51.3400881 80.5907777,52.3262849 80.5907777,53.5427313 C80.5907777,66.3621145 70.1516964,76.7917768 57.320442,76.7917768 C44.4891876,76.7917768 34.0501062,66.3624082 34.0501062,53.5427313 C34.0501062,52.3262849 33.0633128,51.3400881 31.8454739,51.3400881 C30.6276349,51.3400881 29.6408415,52.3262849 29.6408415,53.5427313 C29.6408415,54.5600587 29.697868,55.564464 29.805454,56.5535977 C28.6187739,56.3036711 27.4450276,55.7007342 26.4523551,54.7976505 C25.181899,53.6422907 24.3703003,52.1600587 24.1674741,50.6240822 C23.9828729,49.2273128 24.336496,47.9582966 25.1633801,47.0508076 C26.4976236,45.5870778 28.8933241,45.3051395 31.1261758,46.3488987 C31.7628736,46.646696 32.5039241,46.6229075 33.1206332,46.2851689 C33.7373424,45.9474302 34.1556347,45.3356828 34.2464655,44.6390602 C34.8437739,40.0690162 36.7571009,35.850514 39.7962601,32.3812041 L55.3539099,32.3812041 C56.3677468,37.0405286 60.5256835,40.5418502 65.488458,40.5418502 C66.7062969,40.5418502 67.6930904,39.5556535 67.6930904,38.339207 C67.6930904,37.1227606 66.7062969,36.1365639 65.488458,36.1365639 C62.9792924,36.1365639 60.8313925,34.5782673 59.9524791,32.3812041 L74.8446239,32.3812041 C77.8837831,35.850514 79.7968161,40.0693098 80.3944185,44.6390602 C80.4855433,45.3356828 80.9035416,45.9474302 81.5202507,46.2851689 C82.1369599,46.6229075 82.8777164,46.6464023 83.5147082,46.3488987 C85.746972,45.3048458 88.1432604,45.5870778 89.4775039,47.0508076 C90.304388,47.9580029 90.658011,49.2270191 90.4734098,50.6237885 L90.4734098,50.6237885 Z" id="Shape"></path>
                        <path d="M11.0231619,105.726872 L103.617722,105.726872 C104.835561,105.726872 105.822354,104.740675 105.822354,103.524229 L105.822354,11.0132159 C105.822354,9.79676946 104.835561,8.81057269 103.617722,8.81057269 L94.7991925,8.81057269 C93.5813536,8.81057269 92.5945601,9.79676946 92.5945601,11.0132159 C92.5945601,12.2296623 93.5813536,13.215859 94.7991925,13.215859 L101.41309,13.215859 L101.41309,101.321586 L13.2277943,101.321586 L13.2277943,13.215859 L85.980663,13.215859 C87.1985019,13.215859 88.1852954,12.2296623 88.1852954,11.0132159 C88.1852954,9.79676946 87.1985019,8.81057269 85.980663,8.81057269 L11.0231619,8.81057269 C9.80532299,8.81057269 8.81852954,9.79676946 8.81852954,11.0132159 L8.81852954,103.524229 C8.81852954,104.740675 9.80532299,105.726872 11.0231619,105.726872 L11.0231619,105.726872 Z" id="Shape"></path>
                    </g>
                </g>
            </g>
        </g>
    </g>
</svg>