<?xml version="1.0" encoding="UTF-8" standalone="no"?>
<svg width="115px" height="115px" viewBox="0 0 115 115" version="1.1" xmlns="http://www.w3.org/2000/svg" xmlns:xlink="http://www.w3.org/1999/xlink">
    <!-- Generator: Sketch 3.7 (28169) - http://www.bohemiancoding.com/sketch -->
    <title>tool</title>
    <desc>Created with Sketch.</desc>
    <defs></defs>
    <g id="Page-1" stroke="none" stroke-width="1" fill="none" fill-rule="evenodd">
        <g id="Icons" transform="translate(-497.000000, -350.000000)" fill="#000000">
            <g id="post-type" transform="translate(497.000000, 350.000000)">
                <g id="tool">
                    <g id="Capa_1">
                        <path d="M114.503083,98.339652 L102.669597,3.04391937 C102.433367,1.14190362 100.702174,-0.209985316 98.7943872,0.0271881814 L3.41201378,11.8494193 C1.67213572,12.0651893 0.365924438,13.5426067 0.365924438,15.2942197 L0.365924438,111.320562 C0.365924438,113.237618 1.9211033,114.791394 3.83989062,114.791394 L99.952955,114.791394 C101.871163,114.791394 103.426921,113.237618 103.426921,111.320562 L103.426921,103.209807 L111.483628,102.210786 C112.39786,102.097406 113.229875,101.625951 113.796131,100.899969 C114.361809,100.173987 114.616566,99.2530592 114.503083,98.339652 L114.503083,98.339652 Z M11.8323288,107.849731 L7.31327781,107.849731 L7.31327781,71.4586393 L11.8323288,107.849731 L11.8323288,107.849731 Z M8.03759975,23.2435812 C7.9299068,23.256886 7.82510882,23.2765541 7.72146883,23.2991145 L7.0365185,17.782806 L96.7314303,6.66457527 L97.4146437,12.165265 L8.03759975,23.2435812 L8.03759975,23.2435812 Z M96.4789888,107.849731 L65.9949355,107.849731 L96.4789888,104.071152 L96.4789888,107.849731 L96.4789888,107.849731 Z M18.1642112,107.396787 L8.57201155,30.1522716 C8.67854651,30.1488008 8.78508148,30.1459084 8.89277443,30.1326036 L98.2692394,19.0542874 L107.859123,96.2785565 L18.1642112,107.396787 L18.1642112,107.396787 Z" id="Shape"></path>
                    </g>
                </g>
            </g>
        </g>
    </g>
</svg>