<svg width="96" height="56" viewBox="0 0 96 56" xmlns="http://www.w3.org/2000/svg"><title>transport</title><path d="M77.075 19.169c-1.289 0-2.548.138-3.764.393L68.74 3.676h5.525a3.55 3.55 0 0 1 3.546 3.549 3.55 3.55 0 0 1-3.546 3.548c-.785 0-1.417.635-1.417 1.417 0 .784.632 1.419 1.417 1.419 3.518 0 6.377-2.864 6.377-6.385 0-3.52-2.859-6.385-6.375-6.385H62.659a1.418 1.418 0 1 0 0 2.836h3.173c.008.07-.005.144.015.214l2.322 8.067H38.761l-2.313-8.04h7.709a1.418 1.418 0 1 0 0-2.84h-15.6a1.419 1.419 0 1 0 0 2.839h4.94l2.496 8.674-7.769 9.252a18.141 18.141 0 0 0-9.473-2.672C8.646 19.169.43 27.389.43 37.496c0 10.111 8.215 18.33 18.32 18.33 9.784 0 17.775-7.717 18.274-17.382h1.934c.562 3.156 3.31 5.56 6.62 5.56 3.713 0 6.74-3.026 6.74-6.744 0-1.47-.485-2.82-1.286-3.927L69.31 15.918l1.284 4.455c-6.904 2.626-11.837 9.3-11.837 17.122 0 10.11 8.22 18.329 18.32 18.329 10.104 0 18.32-8.22 18.32-18.329 0-10.105-8.22-18.326-18.323-18.326zM36.94 15.872l4.61 16.013a6.717 6.717 0 0 0-2.48 3.717h-2.096c-.497-4.85-2.894-9.135-6.429-12.114l6.395-7.616zM22.782 35.604a5.023 5.023 0 0 0-.924-1.766l6.864-8.177a15.476 15.476 0 0 1 5.386 9.94l-11.326.003zm-4.031 17.383c-8.54 0-15.485-6.95-15.485-15.491 0-8.543 6.945-15.488 15.485-15.488 2.776 0 5.378.742 7.635 2.027l-6.868 8.182a4.999 4.999 0 0 0-1.593-.281 5.091 5.091 0 0 0-5.083 5.088 5.087 5.087 0 0 0 5.083 5.083c2.308 0 4.24-1.55 4.862-3.668h11.401c-.494 8.105-7.219 14.548-15.437 14.548zm30.162-21.55a6.636 6.636 0 0 0-3.335-.916c-.49 0-.965.057-1.43.158L39.58 14.793h26.8L48.912 31.437zm28.162 21.55c-8.536 0-15.483-6.95-15.483-15.491 0-6.529 4.062-12.115 9.79-14.392l4.274 14.841a1.418 1.418 0 0 0 1.75.973 1.424 1.424 0 0 0 .973-1.758L74.1 22.292c.963-.184 1.96-.29 2.976-.29 8.54 0 15.486 6.948 15.486 15.488 0 8.551-6.946 15.497-15.488 15.497z" fill="#000" fill-rule="evenodd"/></svg>