<svg width="96" height="65" viewBox="0 0 96 65" xmlns="http://www.w3.org/2000/svg"><title>cutlery</title><g fill="#000" fill-rule="evenodd"><path d="M66.398 17.473a1.52 1.52 0 0 0-.285 2.13 21.073 21.073 0 0 1 4.355 12.895c0 11.725-9.535 21.264-21.254 21.264-11.72 0-21.254-9.539-21.254-21.264s9.534-21.264 21.254-21.264a21.05 21.05 0 0 1 12.89 4.357 1.518 1.518 0 1 0 1.843-2.414c-4.263-3.258-9.358-4.98-14.733-4.98-13.394 0-24.29 10.901-24.29 24.301 0 13.4 10.896 24.302 24.29 24.302 13.393 0 24.29-10.902 24.29-24.302 0-5.378-1.721-10.475-4.979-14.74a1.517 1.517 0 0 0-2.127-.285z"/><path d="M49.214.096c-17.859 0-32.387 14.535-32.387 32.402s14.528 32.403 32.387 32.403C67.072 64.9 81.6 50.365 81.6 32.498 81.6 14.631 67.072.096 49.214.096zm0 61.767c-16.184 0-29.351-13.173-29.351-29.365S33.03 3.133 49.213 3.133c16.185 0 29.352 13.173 29.352 29.365S65.398 61.863 49.214 61.863zM13.79.096c-.838 0-1.518.68-1.518 1.518v12.658H9.236V1.614a1.518 1.518 0 1 0-3.037 0v12.658H3.163V1.614a1.518 1.518 0 1 0-3.036 0v18.227c0 3.667 2.612 6.736 6.072 7.441v36.1a1.518 1.518 0 1 0 3.037 0v-36.1c3.46-.705 6.072-3.774 6.072-7.441V1.614c0-.839-.68-1.518-1.518-1.518zM7.718 24.398a4.56 4.56 0 0 1-4.555-4.557v-2.532h9.11v2.532a4.56 4.56 0 0 1-4.555 4.557zM93.746.096c-4.186 0-7.59 3.406-7.59 7.594v27.846c0 .839.679 1.519 1.518 1.519h4.554v26.327a1.518 1.518 0 1 0 3.036 0V1.614c0-.839-.68-1.518-1.518-1.518zm-1.518 33.921h-3.036V7.69c0-1.98 1.269-3.67 3.036-4.296v30.623z"/></g></svg>