<svg width="105" height="97" viewBox="0 0 105 97" xmlns="http://www.w3.org/2000/svg"><title>envelope</title><g fill="#000" fill-rule="evenodd"><path d="M104.031 40.009l-13.287-8.795V1.82c0-.95-.772-1.72-1.724-1.72H16.521c-.952 0-1.723.77-1.723 1.72v29.397L1.512 40.008a1.717 1.717 0 0 0-.771 1.434v53.283c0 .95.772 1.72 1.723 1.72H103.08c.952 0 1.724-.77 1.724-1.72V41.442c0-.598-.307-1.125-.772-1.433zm-89.233 6.017l-5.406-2.863h5.406v2.863zm-10.61-1.723L43.822 65.29 4.188 91.52V44.303zM52.77 63.497l44.59 29.507H8.181l44.59-29.507zm8.95 1.794l39.634-20.988V91.52L61.721 65.29zm29.023-22.128h5.408l-5.408 2.864v-2.864zm6.616-3.441h-6.616v-4.38l6.616 4.38zM87.297 3.54v44.312L58.45 63.128l-4.728-3.129a1.726 1.726 0 0 0-1.904 0l-4.727 3.128-28.847-15.276V3.54h69.052zm-72.5 36.182H8.185l6.614-4.377v4.377z"/><path d="M52.77 45.347h13.732c.952 0 1.723-.77 1.723-1.72s-.771-1.72-1.723-1.72H52.771c-6.622 0-12.008-5.378-12.008-11.988v-.508c0-6.61 5.386-11.988 12.008-11.988 6.62 0 12.007 5.378 12.007 11.988v1.27a2.6 2.6 0 0 1-5.198 0v-2.412c0-4.098-3.34-7.433-7.445-7.433S44.69 24.17 44.69 28.27c0 4.098 3.34 7.432 7.445 7.432a7.418 7.418 0 0 0 4.904-1.847 6.049 6.049 0 0 0 5.14 2.862c3.334 0 6.046-2.707 6.046-6.036v-1.27c0-8.507-6.933-15.428-15.454-15.428-8.522 0-15.455 6.921-15.455 15.429v.507c0 8.508 6.933 15.43 15.455 15.43zm-.635-13.087a3.999 3.999 0 0 1-3.998-3.991 4 4 0 0 1 3.998-3.991 4 4 0 0 1 3.998 3.99c0 2.201-1.794 3.992-3.998 3.992z"/></g></svg>