<svg width="95" height="105" viewBox="0 0 95 105" xmlns="http://www.w3.org/2000/svg"><title>food-2</title><g transform="translate(0 .93)" fill="#000" fill-rule="evenodd"><path d="M78.467 35.401h-6.895v-.55a1.652 1.652 0 1 0-3.304 0v37.221a1.652 1.652 0 1 0 3.304 0v-.55h6.895c4.22 0 7.652-3.435 7.652-7.657V43.057c0-4.221-3.432-7.656-7.652-7.656zm4.349 28.464c0 2.4-1.951 4.351-4.349 4.351h-6.895v-29.51h6.895a4.355 4.355 0 0 1 4.349 4.351v20.808z"/><path d="M78.467 26.588h-6.895v-7.39c0-.912-.74-1.652-1.652-1.652h-.778c-.814-6.344-6.242-11.264-12.8-11.264-1.164 0-2.31.155-3.421.46C49.266 2.443 44.008 0 38.318 0c-5.69 0-10.949 2.443-14.604 6.743a12.862 12.862 0 0 0-3.42-.46c-6.56 0-11.988 4.919-12.801 11.263h-.778c-.912 0-1.651.74-1.651 1.653v67.444a8.973 8.973 0 0 0-4.855 7.96c0 4.937 4.014 8.952 8.948 8.952h58.322c4.933 0 8.947-4.015 8.947-8.952a8.973 8.973 0 0 0-4.854-7.96v-6.308h6.895c9.077 0 16.462-7.388 16.462-16.47V43.057c0-9.081-7.385-16.47-16.462-16.47zm-58.174-17c1.171 0 2.319.21 3.41.625a1.651 1.651 0 0 0 1.907-.552c3.034-4.04 7.666-6.356 12.708-6.356 5.041 0 9.673 2.317 12.707 6.355a1.65 1.65 0 0 0 1.907.552 9.564 9.564 0 0 1 3.41-.625c4.734 0 8.676 3.444 9.462 7.959H10.832c.785-4.515 4.728-7.959 9.461-7.959zm71.332 54.277c0 7.26-5.903 13.165-13.158 13.165H69.92c-.913 0-1.652.74-1.652 1.652v9.042c0 .7.44 1.323 1.1 1.557a5.658 5.658 0 0 1 3.755 5.322 5.652 5.652 0 0 1-5.645 5.647H9.157a5.652 5.652 0 0 1-5.645-5.647 5.658 5.658 0 0 1 3.756-5.322 1.652 1.652 0 0 0 1.099-1.557V20.851h59.901v7.39c0 .912.74 1.652 1.652 1.652h8.547c7.256 0 13.158 5.905 13.158 13.164v20.808z"/><path d="M43.493 86.072H19.929a4.962 4.962 0 0 1-4.955-4.958v-24.23a1.652 1.652 0 1 0-3.304 0v24.23c0 4.556 3.705 8.263 8.259 8.263h23.564a1.652 1.652 0 0 0 0-3.305z"/><ellipse cx="55.055" cy="63.276" rx="1.652" ry="1.652"/><ellipse cx="55.055" cy="69.886" rx="1.652" ry="1.652"/><path d="M63.313 24.156c-.912 0-1.651.74-1.651 1.652v16.203H14.974V25.808a1.652 1.652 0 1 0-3.304 0v24.465a1.652 1.652 0 1 0 3.304 0v-4.957h46.688v35.798a4.962 4.962 0 0 1-4.955 4.958H50.1a1.652 1.652 0 0 0 0 3.305h6.607c4.553 0 8.258-3.707 8.258-8.263V25.808c0-.912-.74-1.652-1.652-1.652z"/></g></svg>