<svg width="96" height="96" viewBox="0 0 96 96" xmlns="http://www.w3.org/2000/svg"><title>game</title><path d="M95.988 54.002a2.266 2.266 0 0 0-1.566-1.973l-11.8-3.786-3.784-11.805a2.266 2.266 0 0 0-1.465-1.466l-11.8-3.787-3.784-11.804a2.265 2.265 0 0 0-1.465-1.466L48.526 14.13 44.742 2.325a2.266 2.266 0 0 0-4.172-.342L12.99 55.736l-6.325 6.328c-7.732 7.736-7.732 20.323 0 28.059a19.697 19.697 0 0 0 14.023 5.811 19.696 19.696 0 0 0 14.023-5.811l6.325-6.328 53.727-27.591a2.266 2.266 0 0 0 1.224-2.202zM42.1 8.925l2.15 6.71-15.81 25.818a2.267 2.267 0 0 0 1.929 3.45c.762 0 1.506-.384 1.933-1.082l15.425-25.188 10.105 3.242 3.362 10.488-7.968 7.973a2.267 2.267 0 0 0 3.203 3.205l7.968-7.973 10.483 3.364 3.241 10.11-42.236 25.891-5.417-5.419L50.022 49.95a2.265 2.265 0 1 0-3.204-3.205L27.265 66.31l-5.416-5.419 5.741-9.376a2.267 2.267 0 0 0-.748-3.116 2.264 2.264 0 0 0-3.115.748l-5.173 8.448-.941-.941L42.1 8.925zM31.508 86.918A15.197 15.197 0 0 1 20.69 91.4c-4.087 0-7.93-1.592-10.82-4.483-5.965-5.969-5.965-15.68 0-21.65l4.975-4.976 21.638 21.65-4.974 4.976zm8.613-7.747l-.941-.941 41.94-25.71 6.706 2.152-47.705 24.5z" fill="#000" fill-rule="evenodd"/></svg>