<svg width="105" height="102" viewBox="0 0 105 102" xmlns="http://www.w3.org/2000/svg"><title>circle</title><path d="M97.918 25.938c-4.65-7.952-10.957-14.249-18.923-18.89C71.028 2.407 62.331.086 52.897.086c-9.434 0-18.134 2.321-26.1 6.962-7.966 4.64-14.272 10.938-18.922 18.89C3.226 33.891.902 42.576.902 51.992c0 11.31 3.305 21.481 9.918 30.515 6.612 9.034 15.154 15.285 25.624 18.755 1.22.225 2.122.067 2.708-.473.587-.54.88-1.217.88-2.027 0-.135-.011-1.351-.034-3.65a602.574 602.574 0 0 1-.034-6.014l-1.557.27c-.993.18-2.246.258-3.758.236a28.675 28.675 0 0 1-4.705-.473c-1.625-.292-3.137-.967-4.536-2.026-1.399-1.06-2.392-2.445-2.978-4.156l-.677-1.555c-.452-1.036-1.162-2.186-2.133-3.447-.97-1.262-1.952-2.117-2.944-2.568l-.475-.339a4.967 4.967 0 0 1-.88-.811 3.707 3.707 0 0 1-.608-.947c-.136-.316-.024-.575.338-.778.362-.203 1.015-.302 1.963-.302l1.354.202c.903.18 2.02.72 3.351 1.622 1.331.9 2.426 2.072 3.283 3.513 1.039 1.848 2.29 3.256 3.758 4.225 1.466.969 2.945 1.452 4.434 1.452 1.49 0 2.775-.112 3.859-.337a13.481 13.481 0 0 0 3.046-1.014c.406-3.02 1.512-5.34 3.317-6.962-2.572-.27-4.885-.676-6.939-1.217-2.053-.54-4.175-1.42-6.363-2.637-2.19-1.216-4.007-2.726-5.45-4.527-1.445-1.803-2.63-4.17-3.554-7.097-.926-2.93-1.388-6.308-1.388-10.138 0-5.453 1.783-10.093 5.349-13.923-1.67-4.1-1.513-8.696.473-13.787 1.31-.406 3.25-.101 5.823.912 2.572 1.014 4.456 1.882 5.653 2.602 1.196.72 2.155 1.33 2.877 1.825a48.15 48.15 0 0 1 12.999-1.757c4.468 0 8.801.586 13 1.757l2.573-1.621c1.759-1.082 3.836-2.073 6.227-2.975 2.392-.9 4.221-1.148 5.486-.742 2.03 5.091 2.21 9.687.54 13.786 3.566 3.83 5.35 8.472 5.35 13.924 0 3.83-.465 7.22-1.388 10.17-.925 2.953-2.12 5.317-3.587 7.097-1.468 1.78-3.296 3.28-5.485 4.495-2.19 1.217-4.311 2.095-6.364 2.636-2.054.541-4.367.948-6.94 1.218 2.347 2.027 3.52 5.226 3.52 9.597v14.26c0 .81.282 1.486.847 2.026.564.54 1.455.698 2.674.472 10.472-3.468 19.014-9.72 25.626-18.754 6.61-9.034 9.917-19.205 9.917-30.515-.002-9.415-2.328-18.099-6.974-26.052z" fill="#000" fill-rule="evenodd"/></svg>