<svg width="96" height="91" viewBox="0 0 96 91" xmlns="http://www.w3.org/2000/svg"><title>music-2</title><path d="M96 48.53C96 22.29 74.66.94 48.431.94 22.201.94.863 22.288.863 48.53c0 4.968.763 9.86 2.265 14.545v9.978c0 4.689 3.87 8.6 8.966 9.434v.94c0 4.026 3.708 7.302 8.267 7.302 4.559 0 8.267-3.276 8.267-7.302V52.65c0-4.026-3.708-7.301-8.267-7.301-2.13 0-4.074.715-5.542 1.888.682-17.96 15.496-32.363 33.612-32.363S81.362 29.278 82.043 47.24c-1.467-1.173-3.412-1.89-5.542-1.89-4.559 0-8.267 3.276-8.267 7.302v30.776c0 4.026 3.708 7.302 8.267 7.302 4.558 0 8.267-3.276 8.267-7.302v-.94c5.096-.834 8.966-4.745 8.966-9.434v-9.975A47.584 47.584 0 0 0 96 48.53zM7.37 73.054v-10.03c0-2.393 1.988-4.424 4.724-5.108v20.247c-2.736-.685-4.725-2.716-4.725-5.11zm8.965-20.403c0-1.657 1.844-3.057 4.026-3.057 2.182 0 4.025 1.4 4.025 3.057v30.776c0 1.657-1.843 3.058-4.025 3.058-2.182 0-4.026-1.4-4.026-3.058V52.65zm32.096-42.02c-20.887 0-37.88 17.002-37.88 37.9 0 1.779.126 3.556.371 5.31-1.974.525-3.713 1.524-5.046 2.844a43.589 43.589 0 0 1-.772-8.155c0-23.901 19.437-43.347 43.327-43.347 23.891 0 43.327 19.446 43.327 43.347a43.6 43.6 0 0 1-.772 8.156c-1.332-1.32-3.071-2.32-5.046-2.845.246-1.755.372-3.533.372-5.31 0-20.898-16.993-37.9-37.88-37.9zm32.095 72.796c0 1.658-1.843 3.058-4.025 3.058-2.182 0-4.025-1.4-4.025-3.058V52.651c0-1.657 1.843-3.057 4.025-3.057 2.182 0 4.025 1.4 4.025 3.057v30.776zm8.966-10.373c0 2.393-1.989 4.424-4.724 5.109V57.916c2.735.685 4.724 2.716 4.724 5.109v10.029z" fill="#000" fill-rule="evenodd"/></svg>