<svg width="102" height="101" viewBox="0 0 102 101" xmlns="http://www.w3.org/2000/svg"><title>social-media</title><g fill="#010002" fill-rule="evenodd"><path d="M75.401 100.944H25.964c-14.226 0-25.8-11.558-25.8-25.76V25.831C.164 11.63 11.738.078 25.964.078h49.437c14.226 0 25.8 11.552 25.8 25.753v49.353c0 14.202-11.574 25.76-25.8 25.76zM25.964 5.84c-11.044 0-20.026 8.966-20.026 19.988v49.353c0 11.026 8.985 19.992 20.026 19.992h49.437c11.044 0 20.023-8.97 20.023-19.992v-49.35c0-11.025-8.982-19.988-20.023-19.988H25.964V5.84z"/><path d="M98.312 37.925H62.727a2.888 2.888 0 0 1-2.889-2.883 2.886 2.886 0 0 1 2.889-2.884h35.582a2.883 2.883 0 1 1 .003 5.768zM37.89 37.925H3.05a2.885 2.885 0 0 1-2.886-2.88 2.885 2.885 0 0 1 2.885-2.884h34.84a2.886 2.886 0 0 1 2.89 2.884 2.89 2.89 0 0 1-2.89 2.88z"/><path d="M50.68 72.986c-12.413 0-22.517-10.08-22.517-22.476 0-12.396 10.1-22.48 22.518-22.48 12.414 0 22.514 10.08 22.514 22.48 0 12.396-10.097 22.476-22.514 22.476zm0-39.192c-9.231 0-16.746 7.502-16.746 16.719 0 9.216 7.515 16.712 16.747 16.712s16.74-7.496 16.74-16.712c0-9.217-7.508-16.719-16.74-16.719zM83.303 30.479h-12.99a2.885 2.885 0 0 1-2.889-2.88V14.626a2.885 2.885 0 0 1 2.89-2.88h12.989a2.883 2.883 0 0 1 2.885 2.88v12.971a2.883 2.883 0 0 1-2.885 2.88zm-10.108-5.765h7.219v-7.203h-7.219v7.203z"/></g></svg>