<svg width="96" height="96" viewBox="0 0 96 96" xmlns="http://www.w3.org/2000/svg"><title>music</title><path d="M93.645 83.54l-.024-.023L57.08 48.085l28.175-29.086c2.43-.251 4.876-1.468 6.832-3.425 1.839-1.84 3.038-4.132 3.377-6.454.367-2.516-.337-4.873-1.93-6.464C92.226 1.348 90.397.627 88.381.627c-2.727 0-5.556 1.266-7.763 3.474-1.971 1.972-3.187 4.43-3.426 6.876L48 39.282 18.808 10.977c-.24-2.445-1.455-4.904-3.426-6.876-1.838-1.84-4.129-3.039-6.45-3.377-2.517-.366-4.872.337-6.463 1.93C.875 4.247.17 6.604.537 9.12c.34 2.322 1.538 4.614 3.377 6.454C5.875 17.536 8.316 18.75 10.747 19l28.174 29.086L2.38 83.516l-.023.023C1.035 84.861.357 86.652.449 88.582c.087 1.855.882 3.623 2.237 4.978C4.113 94.99 6.05 95.81 8 95.81h.001c1.798 0 3.47-.68 4.704-1.915a.87.87 0 0 0 .023-.024L48 57.458 83.272 93.87l.023.024c1.242 1.242 2.898 1.915 4.696 1.915.115 0 .23-.003.346-.008 1.854-.088 3.622-.884 4.977-2.24 1.355-1.357 2.15-3.125 2.238-4.98.091-1.93-.586-3.72-1.907-5.042zM13.579 15.825a2.122 2.122 0 0 0-1.814-1.022h-.09c-1.587 0-3.363-.83-4.762-2.23-1.18-1.18-1.974-2.662-2.179-4.065-.1-.691-.14-1.98.733-2.852.871-.872 2.16-.833 2.852-.732 1.403.204 2.884.998 4.063 2.178 1.417 1.418 2.25 3.222 2.227 4.826-.01.687.319 1.317.853 1.715l29.49 28.594-2.985 2.895-28.388-29.307zM9.696 90.904c-.554.547-1.227.662-1.695.662-.833 0-1.676-.366-2.315-1.005-.608-.609-.963-1.382-1-2.18-.034-.716.2-1.366.66-1.83l75.127-72.846c.576-.396.928-1.06.918-1.777-.023-1.604.81-3.409 2.227-4.826 1.396-1.397 3.176-2.231 4.763-2.231.624 0 1.504.136 2.153.787.871.87.832 2.158.731 2.85-.204 1.403-.998 2.884-2.178 4.065-1.396 1.396-3.177 2.23-4.765 2.23h-.087a2.12 2.12 0 0 0-1.814 1.022L9.696 90.904zm81.619-2.522c-.038.797-.393 1.57-1.002 2.18-.607.607-1.38.963-2.178 1.001-.714.035-1.366-.2-1.83-.659L50.954 54.408l3.174-3.276 36.527 35.419c.46.465.694 1.115.66 1.83z" fill="#000" fill-rule="evenodd"/></svg>