<svg width="115" height="113" viewBox="0 0 115 113" xmlns="http://www.w3.org/2000/svg"><title>shapes</title><path d="M114.077 61.56l-8.41-13.334a4.773 4.773 0 0 1-.627-3.554l3.339-15.404c.52-2.401-.87-4.804-3.21-5.554L90.147 18.9a4.777 4.777 0 0 1-2.767-2.32L80.028 2.638A4.778 4.778 0 0 0 73.996.443L59.391 6.404a4.79 4.79 0 0 1-3.611 0L41.177.444a4.78 4.78 0 0 0-6.033 2.195L27.792 16.58a4.777 4.777 0 0 1-2.767 2.32l-15.021 4.813a4.77 4.77 0 0 0-3.21 5.553l3.337 15.405a4.768 4.768 0 0 1-.627 3.554L1.094 61.56a4.77 4.77 0 0 0 1.116 6.316l12.467 9.656a4.772 4.772 0 0 1 1.807 3.126l2.137 15.616a4.774 4.774 0 0 0 4.916 4.122l15.763-.61a4.785 4.785 0 0 1 3.395 1.234l11.682 10.59a4.782 4.782 0 0 0 6.42 0l11.682-10.59a4.774 4.774 0 0 1 3.396-1.234l15.761.61a4.775 4.775 0 0 0 4.918-4.122l2.137-15.616a4.776 4.776 0 0 1 1.805-3.126l12.467-9.656a4.77 4.77 0 0 0 1.114-6.316zM44.352 75.511l-13.92-9.714 5.72 13.248-3.813 1.644-8.774-20.314 3.993-1.723 14.183 9.978-5.86-13.565 3.812-1.646 8.778 20.315-4.12 1.777zm8.46-3.649L44.035 51.55l15.077-6.503 1.483 3.437-10.972 4.731 1.945 4.503 10.21-4.403 1.478 3.423-10.21 4.402 2.39 5.529 11.358-4.898 1.478 3.423-15.462 6.67zM87.18 57.043L76.571 43.6l2.523 16.928-4.452 1.92-13.628-18.22 4.201-1.814 9.094 12.633-2.311-15.556 4.884-2.105 9.693 12.653-3.009-15.536 4.133-1.782 3.837 22.444-4.355 1.878z" fill="#000" fill-rule="evenodd"/></svg>