<svg width="95" height="211" viewBox="0 0 95 211" xmlns="http://www.w3.org/2000/svg"><title>pen</title><g fill="#000" fill-rule="evenodd"><path d="M92.274 91.003h-4.189l6.846-86.255a2.323 2.323 0 0 0-2.129-2.499L66.24.137a2.32 2.32 0 0 0-2.497 2.13l-7.05 88.736h-1.646V30.309c0-.266-.046-.53-.135-.78L47.857 9.748a2.321 2.321 0 0 0-4.37 0l-7.06 19.78a2.33 2.33 0 0 0-.135.781v60.694h-2.955l-6.624-78.038a9.321 9.321 0 0 0-3.296-6.38 9.33 9.33 0 0 0-6.841-2.18c-4.812.41-8.582 4.514-8.582 9.343 0 .318.01.58.033.803l.897 10.564-1.25.106C3.585 25.568.54 29.178.888 33.27l3.656 43.083a2.502 2.502 0 0 1-2.278 2.703 2.321 2.321 0 0 0 .393 4.625 7.094 7.094 0 0 0 4.853-2.511 7.098 7.098 0 0 0 1.656-5.21L5.512 32.876a2.806 2.806 0 0 1 2.554-3.03l1.25-.106 5.196 61.262H10.09a2.319 2.319 0 0 0-2.316 2.469l6.862 107.906c.332 5.215 4.683 9.3 9.906 9.3h53.278c5.224 0 9.575-4.085 9.907-9.3L94.589 93.47a2.324 2.324 0 0 0-2.316-2.468zM68.185 4.95l21.936 1.744-.378 4.765-8.61-.684a2.318 2.318 0 0 0-2.498 2.13 2.32 2.32 0 0 0 2.13 2.498l8.61.684-.352 4.447-4.292-.34a2.32 2.32 0 1 0-.367 4.628l4.291.34-.352 4.448-4.292-.341a2.322 2.322 0 0 0-.367 4.628l4.291.34-.353 4.449-4.291-.342a2.32 2.32 0 1 0-.368 4.628l4.292.342-.353 4.447-8.612-.685a2.321 2.321 0 0 0-.367 4.629l8.611.684-.352 4.448-4.293-.342a2.32 2.32 0 1 0-.367 4.628l4.292.341-.353 4.448-4.293-.341a2.32 2.32 0 1 0-.367 4.628l4.293.341-.353 4.447-4.293-.341a2.32 2.32 0 1 0-.368 4.628l4.293.341-.352 4.448-8.614-.685a2.319 2.319 0 0 0-2.496 2.13A2.32 2.32 0 0 0 75 88.006l8.612.685L83.43 91H61.35l6.835-86.05zM45.671 17.433l3.765 10.555h-7.532l3.767-10.555zm-4.739 15.199h9.475v58.371h-9.475V32.632zm-23.965-23.6a4.712 4.712 0 0 1 3.457 1.101 4.707 4.707 0 0 1 1.665 3.223l.325 3.84-9.438.801-.327-3.86a4.196 4.196 0 0 1-.014-.388c0-2.439 1.904-4.51 4.332-4.717zM13.37 22.623l9.438-.802.179 2.1-9.439.801-.178-2.099zm.57 6.726l9.439-.802 5.301 62.456h-9.51l-5.23-61.654zm69.157 171.734a5.296 5.296 0 0 1-5.275 4.952H24.543a5.297 5.297 0 0 1-5.275-4.952L12.564 95.646H89.8l-6.705 105.437z"/><path d="M77.798 199.467a2.321 2.321 0 0 0 2.463-2.17l1.38-21.697a2.321 2.321 0 1 0-4.632-.295l-1.38 21.697a2.322 2.322 0 0 0 2.17 2.465zM79.787 168.189a2.321 2.321 0 0 0 2.463-2.17l3.158-49.668a2.321 2.321 0 1 0-4.632-.294l-3.158 49.667a2.322 2.322 0 0 0 2.169 2.465zM83.542 109.137a2.321 2.321 0 0 0 2.463-2.17l.368-5.782a2.321 2.321 0 1 0-4.632-.295l-.368 5.782a2.322 2.322 0 0 0 2.17 2.465z"/></g></svg>