<svg width="115" height="139" viewBox="0 0 115 139" xmlns="http://www.w3.org/2000/svg"><title>polaroid</title><g fill="#000" fill-rule="evenodd"><path d="M112.436.018H2.205A2.204 2.204 0 0 0 0 2.22v133.627c0 1.217.987 2.203 2.205 2.203h110.231a2.204 2.204 0 0 0 2.205-2.203V2.22a2.204 2.204 0 0 0-2.205-2.202zm-2.204 133.627H4.409V4.423h105.823v129.222z"/><path d="M62.878 56.84a2.205 2.205 0 0 0-2.816 1.339 2.915 2.915 0 0 1-2.742 1.932 2.915 2.915 0 0 1-2.74-1.932 2.205 2.205 0 0 0-4.155 1.475 7.332 7.332 0 0 0 6.895 4.862c3.09 0 5.861-1.954 6.896-4.862a2.202 2.202 0 0 0-1.338-2.813zM51.767 48.776v-1.468a2.204 2.204 0 0 0-2.205-2.203h-5.144a2.204 2.204 0 1 0 0 4.405h3.065a2.205 2.205 0 0 0 4.284-.734zM70.223 45.105h-5.144a2.204 2.204 0 0 0-2.205 2.203v1.468a2.205 2.205 0 1 0 4.284.734h3.065a2.204 2.204 0 1 0 0-4.405zM57.32 84.159c-9.968 0-19.521 3.034-27.627 8.774a2.201 2.201 0 0 0-.523 3.071 2.206 2.206 0 0 0 3.073.523c7.356-5.21 16.028-7.963 25.077-7.963 9.05 0 17.722 2.754 25.078 7.964a2.203 2.203 0 0 0 2.55-3.594c-8.105-5.741-17.659-8.775-27.628-8.775z"/><path d="M94.845 51.218c.357-2.705-.39-5.232-2.107-7.116-2.064-2.265-5.237-3.184-8.43-2.587-1.07-4.697-3.345-9.002-6.663-12.588l-5.178-10.09a2.205 2.205 0 0 0-3.924 2.01l3.668 7.146H42.43l3.666-7.147a2.201 2.201 0 0 0-.956-2.965 2.206 2.206 0 0 0-2.967.955l-5.179 10.091c-3.317 3.586-5.593 7.89-6.662 12.588-3.193-.598-6.366.322-8.43 2.587-1.717 1.884-2.465 4.41-2.107 7.116.339 2.566 1.649 5 3.688 6.855 2.05 1.864 4.641 2.932 7.202 3.024 3.292 11.597 13.986 20.117 26.634 20.117 12.649 0 23.343-8.52 26.635-20.117 2.56-.092 5.15-1.16 7.201-3.024 2.04-1.855 3.35-4.29 3.689-6.855zm-4.372-.577c-.202 1.536-1.014 3.019-2.284 4.174-.993.903-2.167 1.506-3.354 1.756.108-.989.165-1.993.165-3.01a2.204 2.204 0 0 0-2.205-2.203 2.204 2.204 0 0 0-2.204 2.202c0 12.82-10.44 23.25-23.27 23.25-12.832 0-23.27-10.43-23.27-23.25a2.204 2.204 0 0 0-2.206-2.202 2.204 2.204 0 0 0-2.204 2.202c0 1.018.057 2.022.164 3.011-1.186-.25-2.36-.853-3.353-1.756-1.27-1.155-2.082-2.637-2.285-4.173-.184-1.397.17-2.666.996-3.574 1.335-1.463 3.73-1.745 5.963-.701a2.207 2.207 0 0 0 3.12-1.71 23.034 23.034 0 0 1 5.55-12.258h15.558c1.014 4.66 5.172 8.16 10.134 8.16a2.204 2.204 0 1 0 0-4.405 5.969 5.969 0 0 1-5.536-3.755h14.893a23.038 23.038 0 0 1 5.55 12.258 2.202 2.202 0 0 0 3.12 1.71c2.232-1.045 4.628-.762 5.963.701.826.908 1.18 2.177.995 3.573z"/><path d="M11.023 105.744h92.595a2.204 2.204 0 0 0 2.204-2.202V11.03a2.204 2.204 0 0 0-2.204-2.203h-8.819a2.204 2.204 0 1 0 0 4.405h6.614v88.106H13.228V13.233H85.98a2.204 2.204 0 1 0 0-4.405H11.023a2.204 2.204 0 0 0-2.204 2.203v92.51c0 1.217.986 2.203 2.204 2.203z"/></g></svg>