<svg width="115" height="141" viewBox="0 0 115 141" xmlns="http://www.w3.org/2000/svg"><title>graduation</title><g fill="#000" fill-rule="evenodd"><path d="M114.552 124.74c-5.435-12.872-23.804-53.298-23.804-53.298 6.399-7.541 10.268-17.287 10.268-27.923 0-23.848-19.419-43.25-43.289-43.25-23.869 0-43.29 19.402-43.29 43.25 0 10.636 3.872 20.382 10.269 27.923l-23.85 53.66a3.2 3.2 0 0 0 .652 3.552 3.214 3.214 0 0 0 3.55.69l15.854-6.83 5.562 16.332a3.206 3.206 0 0 0 2.892 2.168l.144.003a3.209 3.209 0 0 0 2.931-1.903l23.287-52.396c.664.031 1.33.052 2 .052.67 0 1.335-.02 2-.052l23.286 52.396a3.21 3.21 0 0 0 2.932 1.903l.143-.003a3.207 3.207 0 0 0 2.893-2.168l5.561-16.331 15.745 6.72c.41.176.84.263 1.269.263h.033c1.772 0 3.218-1.285 3.346-3.084.029-.416-.064-.918-.384-1.674zm-84.646 4.29l-4.04-11.863a3.205 3.205 0 0 0-4.306-1.91l-11.515 4.962 19.512-43.9c5.491 4.713 12.164 8.083 19.519 9.583l-19.17 43.128zm-9.055-85.51c0-20.317 16.542-36.844 36.876-36.844 20.334 0 36.876 16.527 36.876 36.843 0 20.316-16.542 36.843-36.876 36.843-20.334 0-36.876-16.527-36.876-36.843zm73.043 71.737a3.238 3.238 0 0 0-2.57.015 3.205 3.205 0 0 0-1.736 1.895L85.55 129.03 66.38 85.902c7.354-1.499 14.028-4.87 19.518-9.584l19.512 43.9-11.516-4.96z"/><path d="M57.727 14.686c-15.912 0-28.86 12.936-28.86 28.833 0 15.898 12.948 28.834 28.86 28.834 15.913 0 28.86-12.935 28.86-28.834 0-15.898-12.947-28.833-28.86-28.833zm0 51.26c-12.377 0-22.447-10.06-22.447-22.427 0-12.365 10.07-22.426 22.447-22.426 12.377 0 22.446 10.06 22.446 22.426 0 12.366-10.069 22.426-22.446 22.426z"/></g></svg>