<svg width="96" height="96" viewBox="0 0 96 96" xmlns="http://www.w3.org/2000/svg"><title>speakers</title><g fill="#000" fill-rule="evenodd"><path d="M78.238.187H16.9c-.839 0-1.518.68-1.518 1.52V93.85c0 .839.68 1.519 1.518 1.519h61.338c.838 0 1.518-.68 1.518-1.519V1.706c0-.839-.68-1.519-1.518-1.519zm-1.519 92.145H18.418V3.225h58.301v89.107zM86.51 55.576a1.517 1.517 0 1 0-2.483 1.747 10.118 10.118 0 0 1 1.843 5.845c0 2.106-.637 4.127-1.843 5.845a1.52 1.52 0 0 0 2.484 1.746 13.141 13.141 0 0 0 2.395-7.591c0-2.735-.828-5.36-2.395-7.592z"/><path d="M91.61 51.992a1.518 1.518 0 1 0-2.485 1.747 16.32 16.32 0 0 1 2.976 9.429c0 3.395-1.029 6.656-2.976 9.428a1.52 1.52 0 0 0 2.484 1.747 19.346 19.346 0 0 0 3.528-11.175c0-4.025-1.22-7.889-3.528-11.176zM10.741 55.207a1.518 1.518 0 0 0-2.114.37 13.141 13.141 0 0 0-2.396 7.59c0 2.735.828 5.36 2.396 7.592a1.516 1.516 0 0 0 2.114.37 1.52 1.52 0 0 0 .37-2.116 10.118 10.118 0 0 1-1.844-5.845c0-2.107.638-4.128 1.844-5.845a1.519 1.519 0 0 0-.37-2.116z"/><path d="M3.036 63.168c0-3.396 1.03-6.657 2.977-9.43a1.52 1.52 0 0 0-2.485-1.746A19.347 19.347 0 0 0 0 63.168c0 4.024 1.22 7.888 3.528 11.175a1.516 1.516 0 0 0 2.115.37 1.52 1.52 0 0 0 .37-2.117 16.323 16.323 0 0 1-2.977-9.428zM47.569 84.908c11.981 0 21.73-9.753 21.73-21.74 0-11.988-9.749-21.74-21.73-21.74-11.982 0-21.73 9.752-21.73 21.74 0 11.987 9.748 21.74 21.73 21.74zm0-40.443c10.307 0 18.693 8.39 18.693 18.703 0 10.312-8.386 18.702-18.693 18.702-10.308 0-18.694-8.39-18.694-18.702 0-10.313 8.386-18.703 18.694-18.703z"/><path d="M52.123 63.168c0-2.47-2.086-4.557-4.554-4.557-2.469 0-4.555 2.087-4.555 4.557s2.086 4.556 4.555 4.556c2.468 0 4.554-2.086 4.554-4.556zm-4.554 1.519c-.809 0-1.518-.71-1.518-1.52 0-.808.709-1.518 1.518-1.518.808 0 1.518.71 1.518 1.519 0 .809-.71 1.519-1.518 1.519zM47.569 36.095c7.012 0 12.717-5.707 12.717-12.722 0-7.016-5.705-12.723-12.717-12.723-7.012 0-12.717 5.707-12.717 12.723 0 7.015 5.705 12.722 12.717 12.722zm0-22.408c5.338 0 9.68 4.345 9.68 9.686 0 5.34-4.342 9.685-9.68 9.685s-9.68-4.345-9.68-9.685c0-5.34 4.342-9.686 9.68-9.686z"/><path d="M47.569 30.02c3.663 0 6.644-2.982 6.644-6.647 0-3.666-2.98-6.648-6.644-6.648s-6.645 2.982-6.645 6.648c0 3.665 2.981 6.647 6.645 6.647zm0-10.257c1.99 0 3.608 1.62 3.608 3.61 0 1.99-1.619 3.61-3.608 3.61a3.613 3.613 0 0 1-3.608-3.61c0-1.99 1.618-3.61 3.608-3.61zM44.207 78.465a1.518 1.518 0 1 0 .651-2.967c-5.742-1.263-9.91-6.448-9.91-12.33 0-6.962 5.662-12.627 12.62-12.627 6.96 0 12.621 5.665 12.621 12.627 0 5.882-4.167 11.067-9.91 12.33a1.519 1.519 0 0 0 .652 2.967c7.124-1.566 12.295-8 12.295-15.297 0-8.637-7.024-15.665-15.657-15.665-8.634 0-15.657 7.028-15.657 15.665 0 7.297 5.17 13.73 12.295 15.297z"/></g></svg>